<svg width="1084" height="538" viewBox="0 0 1084 538" fill="none" xmlns="http://www.w3.org/2000/svg">
<path d="M920.143 380.916L954.815 379.001L955.634 378.955L955.75 378.143L960.654 343.767L986.526 366.929L987.137 367.476L987.793 366.983L1015.57 346.144L1017.48 380.815L1017.53 381.634L1018.34 381.75L1052.72 386.655L1029.56 412.526L1029.01 413.137L1029.5 413.793L1050.34 441.569L1015.67 443.485L1014.85 443.53L1014.73 444.342L1009.83 478.718L983.959 455.557L983.348 455.009L982.692 455.502L954.916 476.342L953 441.67L952.955 440.851L952.143 440.735L917.767 435.831L940.929 409.959L941.476 409.348L940.983 408.692L920.143 380.916Z" fill="#1070FF" stroke="black" stroke-width="2"/>
<path d="M152.603 265.209L162.883 215.01L183.182 262.058L183.884 263.684L184.914 262.244L214.723 220.566L214.131 271.804L214.11 273.574L215.637 272.678L259.821 246.728L238.44 293.295L237.701 294.904L239.461 294.706L290.38 288.97L251.906 322.815L250.577 323.984L252.265 324.519L301.115 339.99L252.202 355.26L250.511 355.788L251.836 356.963L290.17 390.965L239.275 385.021L237.516 384.815L238.248 386.427L259.438 433.082L215.361 406.95L213.838 406.047L213.851 407.818L214.232 459.057L184.595 417.257L183.57 415.813L182.862 417.436L162.37 464.401L152.296 414.159L151.948 412.423L150.641 413.618L112.818 448.187L124.05 398.192L124.438 396.465L122.758 397.025L74.1442 413.221L104.74 372.117L105.797 370.697L104.035 370.525L53.0363 365.548L97.7055 340.442L99.2491 339.575L97.7091 338.701L53.1436 313.411L104.162 308.644L105.925 308.48L104.874 307.055L74.4476 265.825L122.994 282.222L124.672 282.789L124.291 281.059L113.265 231.019L150.945 265.744L152.247 266.944L152.603 265.209Z" fill="#8544E1" stroke="black" stroke-width="2"/>
<line x1="839.08" y1="74.9004" x2="1045.34" y2="239.864" stroke="#0C1416" stroke-width="3"/>
<circle cx="840.66" cy="75.6598" r="6" transform="rotate(69.3935 840.66 75.6598)" fill="#F75B5B" stroke="#0C1416" stroke-width="3"/>
<circle cx="1045.04" cy="241.327" r="6" transform="rotate(69.3935 1045.04 241.327)" fill="#F75B5B" stroke="#0C1416" stroke-width="3"/>
<mask id="path-6-outside-1_104_894" maskUnits="userSpaceOnUse" x="113" y="7" width="874" height="522" fill="black">
<rect fill="white" x="113" y="7" width="874" height="522"/>
<path d="M491.511 520.038L454.621 398.892H269.128L232.238 520.038H116L295.577 9H427.476L607.749 520.038H491.511ZM428.868 308.382L391.978 190.021C389.658 182.131 386.526 172.035 382.582 159.735C378.869 147.203 375.041 134.555 371.097 121.79C367.385 108.794 364.369 97.5381 362.048 88.0229C359.728 97.5381 356.48 109.374 352.304 123.531C348.36 137.456 344.532 150.684 340.819 163.216C337.107 175.749 334.439 184.684 332.815 190.021L296.273 308.382H428.868Z"/>
<path d="M823.172 122.835C875.374 122.835 915.396 134.207 943.238 156.95C971.079 179.694 985 214.274 985 260.69V520.038H910.872L890.339 467.124H887.555C876.419 481.048 865.05 492.42 853.449 501.239C841.849 510.058 828.508 516.556 813.427 520.734C798.347 524.911 780.018 527 758.441 527C735.471 527 714.822 522.591 696.493 513.772C678.396 504.953 664.128 491.492 653.687 473.39C643.247 455.056 638.026 431.848 638.026 403.766C638.026 362.456 652.527 332.054 681.529 312.559C710.53 292.832 754.032 281.925 812.035 279.836L879.551 277.747V260.69C879.551 240.267 874.214 225.297 863.542 215.782C852.869 206.267 838.021 201.509 818.996 201.509C800.203 201.509 781.758 204.178 763.661 209.516C745.564 214.854 727.467 221.584 709.37 229.707L674.22 157.995C694.869 147.087 717.954 138.5 743.476 132.234C769.229 125.968 795.794 122.835 823.172 122.835ZM879.551 339.712L838.485 341.105C804.147 342.033 780.25 348.183 766.793 359.555C753.568 370.927 746.956 385.896 746.956 404.462C746.956 420.708 751.712 432.312 761.225 439.274C770.737 446.004 783.15 449.37 798.463 449.37C821.2 449.37 840.341 442.639 855.885 429.179C871.662 415.718 879.551 396.572 879.551 371.739V339.712Z"/>
</mask>
<path d="M491.511 520.038L454.621 398.892H269.128L232.238 520.038H116L295.577 9H427.476L607.749 520.038H491.511ZM428.868 308.382L391.978 190.021C389.658 182.131 386.526 172.035 382.582 159.735C378.869 147.203 375.041 134.555 371.097 121.79C367.385 108.794 364.369 97.5381 362.048 88.0229C359.728 97.5381 356.48 109.374 352.304 123.531C348.36 137.456 344.532 150.684 340.819 163.216C337.107 175.749 334.439 184.684 332.815 190.021L296.273 308.382H428.868Z" fill="#F75B5B"/>
<path d="M823.172 122.835C875.374 122.835 915.396 134.207 943.238 156.95C971.079 179.694 985 214.274 985 260.69V520.038H910.872L890.339 467.124H887.555C876.419 481.048 865.05 492.42 853.449 501.239C841.849 510.058 828.508 516.556 813.427 520.734C798.347 524.911 780.018 527 758.441 527C735.471 527 714.822 522.591 696.493 513.772C678.396 504.953 664.128 491.492 653.687 473.39C643.247 455.056 638.026 431.848 638.026 403.766C638.026 362.456 652.527 332.054 681.529 312.559C710.53 292.832 754.032 281.925 812.035 279.836L879.551 277.747V260.69C879.551 240.267 874.214 225.297 863.542 215.782C852.869 206.267 838.021 201.509 818.996 201.509C800.203 201.509 781.758 204.178 763.661 209.516C745.564 214.854 727.467 221.584 709.37 229.707L674.22 157.995C694.869 147.087 717.954 138.5 743.476 132.234C769.229 125.968 795.794 122.835 823.172 122.835ZM879.551 339.712L838.485 341.105C804.147 342.033 780.25 348.183 766.793 359.555C753.568 370.927 746.956 385.896 746.956 404.462C746.956 420.708 751.712 432.312 761.225 439.274C770.737 446.004 783.15 449.37 798.463 449.37C821.2 449.37 840.341 442.639 855.885 429.179C871.662 415.718 879.551 396.572 879.551 371.739V339.712Z" fill="#29D68D"/>
<path d="M491.511 520.038L489.598 520.62L490.029 522.038H491.511V520.038ZM454.621 398.892L456.534 398.31L456.103 396.892H454.621V398.892ZM269.128 398.892V396.892H267.646L267.214 398.31L269.128 398.892ZM232.238 520.038V522.038H233.72L234.151 520.62L232.238 520.038ZM116 520.038L114.113 519.375L113.177 522.038H116V520.038ZM295.577 9V7H294.16L293.69 8.33695L295.577 9ZM427.476 9L429.362 8.33467L428.891 7H427.476V9ZM607.749 520.038V522.038H610.575L609.635 519.372L607.749 520.038ZM428.868 308.382V310.382H431.586L430.777 307.787L428.868 308.382ZM391.978 190.021L390.059 190.586L390.064 190.601L390.069 190.617L391.978 190.021ZM382.582 159.735L380.664 160.303L380.67 160.325L380.677 160.346L382.582 159.735ZM371.097 121.79L369.174 122.34L369.18 122.36L369.186 122.381L371.097 121.79ZM362.048 88.0229L363.992 87.5491H360.105L362.048 88.0229ZM352.304 123.531L350.386 122.965L350.383 122.975L350.38 122.986L352.304 123.531ZM332.815 190.021L334.726 190.611L334.728 190.604L332.815 190.021ZM296.273 308.382L294.362 307.792L293.563 310.382H296.273V308.382ZM985 520.038V522.038H987V520.038H985ZM910.872 520.038L909.008 520.761L909.503 522.038H910.872V520.038ZM890.339 467.124L892.204 466.4L891.708 465.124H890.339V467.124ZM887.555 467.124V465.124H886.594L885.993 465.874L887.555 467.124ZM696.493 513.772L695.617 515.569L695.626 515.574L696.493 513.772ZM653.687 473.39L651.949 474.379L651.955 474.389L653.687 473.39ZM681.529 312.559L682.644 314.219L682.653 314.213L681.529 312.559ZM812.035 279.836L811.973 277.837L811.963 277.837L812.035 279.836ZM879.551 277.747L879.612 279.746L881.551 279.686V277.747H879.551ZM709.37 229.707L707.574 230.587L708.425 232.323L710.189 231.532L709.37 229.707ZM674.22 157.995L673.286 156.226L671.57 157.133L672.424 158.875L674.22 157.995ZM743.476 132.234L743.003 130.291L742.999 130.292L743.476 132.234ZM879.551 339.712H881.551V337.643L879.483 337.714L879.551 339.712ZM838.485 341.105L838.539 343.104L838.552 343.104L838.485 341.105ZM766.793 359.555L765.502 358.028L765.495 358.033L765.489 358.039L766.793 359.555ZM761.225 439.274L760.043 440.888L760.056 440.898L760.07 440.907L761.225 439.274ZM855.885 429.179L854.587 427.657L854.582 427.662L854.576 427.667L855.885 429.179ZM493.424 519.455L456.534 398.31L452.708 399.475L489.598 520.62L493.424 519.455ZM454.621 396.892H269.128V400.892H454.621V396.892ZM267.214 398.31L230.325 519.455L234.151 520.62L271.041 399.475L267.214 398.31ZM232.238 518.038H116V522.038H232.238V518.038ZM117.887 520.701L297.464 9.66305L293.69 8.33695L114.113 519.375L117.887 520.701ZM295.577 11H427.476V7H295.577V11ZM425.59 9.66533L605.863 520.703L609.635 519.372L429.362 8.33467L425.59 9.66533ZM607.749 518.038H491.511V522.038H607.749V518.038ZM430.777 307.787L393.887 189.426L390.069 190.617L426.958 308.977L430.777 307.787ZM393.897 189.457C391.57 181.545 388.433 171.433 384.486 159.125L380.677 160.346C384.619 172.638 387.745 182.717 390.059 190.586L393.897 189.457ZM384.499 159.167C380.785 146.627 376.954 133.971 373.008 121.2L369.186 122.381C373.128 135.138 376.954 147.779 380.664 160.303L384.499 159.167ZM373.02 121.241C369.313 108.261 366.304 97.0316 363.992 87.5491L360.105 88.4966C362.433 98.0446 365.457 109.327 369.174 122.34L373.02 121.241ZM360.105 87.5491C357.796 97.0222 354.557 108.825 350.386 122.965L354.222 124.097C358.403 109.923 361.661 98.054 363.992 88.4966L360.105 87.5491ZM350.38 122.986C346.437 136.904 342.611 150.125 338.902 162.648L342.737 163.784C346.452 151.244 350.282 138.008 354.228 124.076L350.38 122.986ZM338.902 162.648C335.19 175.18 332.523 184.109 330.902 189.439L334.728 190.604C336.355 185.258 339.025 176.317 342.737 163.784L338.902 162.648ZM330.904 189.432L294.362 307.792L298.184 308.972L334.726 190.611L330.904 189.432ZM296.273 310.382H428.868V306.382H296.273V310.382ZM823.172 124.835C875.116 124.835 914.619 136.154 941.973 158.499L944.503 155.401C916.174 132.259 875.633 120.835 823.172 120.835V124.835ZM941.973 158.499C969.22 180.758 983 214.685 983 260.69H987C987 213.862 972.938 178.63 944.503 155.401L941.973 158.499ZM983 260.69V520.038H987V260.69H983ZM985 518.038H910.872V522.038H985V518.038ZM912.737 519.314L892.204 466.4L888.475 467.847L909.008 520.761L912.737 519.314ZM890.339 465.124H887.555V469.124H890.339V465.124ZM885.993 465.874C874.937 479.698 863.683 490.947 852.239 499.647L854.66 502.831C866.416 493.894 877.9 482.398 889.117 468.373L885.993 465.874ZM852.239 499.647C840.855 508.301 827.748 514.692 812.893 518.806L813.961 522.661C829.268 518.421 842.842 511.815 854.66 502.831L852.239 499.647ZM812.893 518.806C798.038 522.921 779.9 525 758.441 525V529C780.135 529 798.655 526.901 813.961 522.661L812.893 518.806ZM758.441 525C735.733 525 715.386 520.642 697.361 511.969L695.626 515.574C714.259 524.539 735.21 529 758.441 529V525ZM697.37 511.974C679.646 503.336 665.669 490.161 655.42 472.391L651.955 474.389C662.587 492.823 677.147 506.569 695.617 515.569L697.37 511.974ZM655.425 472.4C645.204 454.451 640.026 431.612 640.026 403.766H636.026C636.026 432.084 641.289 455.66 651.949 474.379L655.425 472.4ZM640.026 403.766C640.026 362.982 654.302 333.27 682.644 314.219L680.413 310.899C650.752 330.837 636.026 361.93 636.026 403.766H640.026ZM682.653 314.213C711.201 294.795 754.26 283.918 812.107 281.835L811.963 277.837C753.805 279.932 709.859 290.87 680.404 310.905L682.653 314.213ZM812.097 281.835L879.612 279.746L879.489 275.748L811.973 277.837L812.097 281.835ZM881.551 277.747V260.69H877.551V277.747H881.551ZM881.551 260.69C881.551 239.947 876.128 224.324 864.873 214.289L862.211 217.275C872.301 226.271 877.551 240.586 877.551 260.69H881.551ZM864.873 214.289C853.727 204.352 838.346 199.509 818.996 199.509V203.509C837.695 203.509 852.012 208.182 862.211 217.275L864.873 214.289ZM818.996 199.509C800.01 199.509 781.375 202.206 763.095 207.598L764.227 211.434C782.141 206.151 800.395 203.509 818.996 203.509V199.509ZM763.095 207.598C744.907 212.962 726.726 219.725 708.551 227.882L710.189 231.532C728.208 223.444 746.22 216.745 764.227 211.434L763.095 207.598ZM711.166 228.827L676.016 157.114L672.424 158.875L707.574 230.587L711.166 228.827ZM675.154 159.763C695.642 148.941 718.571 140.408 743.953 134.176L742.999 130.292C717.338 136.592 694.097 145.233 673.286 156.226L675.154 159.763ZM743.949 134.177C769.542 127.95 795.948 124.835 823.172 124.835V120.835C795.64 120.835 768.916 123.986 743.003 130.291L743.949 134.177ZM879.483 337.714L838.417 339.106L838.552 343.104L879.618 341.711L879.483 337.714ZM838.431 339.106C804.007 340.036 779.509 346.191 765.502 358.028L768.084 361.083C780.99 350.176 804.287 344.03 838.539 343.104L838.431 339.106ZM765.489 358.039C751.791 369.817 744.956 385.356 744.956 404.462H748.956C748.956 386.436 755.346 372.036 768.097 361.072L765.489 358.039ZM744.956 404.462C744.956 421.086 749.838 433.418 760.043 440.888L762.406 437.66C753.587 431.205 748.956 420.33 748.956 404.462H744.956ZM760.07 440.907C770.012 447.941 782.865 451.37 798.463 451.37V447.37C783.435 447.37 771.463 444.068 762.38 437.642L760.07 440.907ZM798.463 451.37C821.626 451.37 841.247 444.5 857.195 430.691L854.576 427.667C839.434 440.779 820.773 447.37 798.463 447.37V451.37ZM857.184 430.7C873.494 416.784 881.551 397.03 881.551 371.739H877.551C877.551 396.113 869.83 414.652 854.587 427.657L857.184 430.7ZM881.551 371.739V339.712H877.551V371.739H881.551Z" fill="#0C1416" mask="url(#path-6-outside-1_104_894)"/>
<circle cx="111.5" cy="521.5" r="8.5" fill="#8544E1" stroke="#0C1416" stroke-width="2"/>
<circle cx="228.5" cy="521.5" r="8.5" fill="#8544E1" stroke="#0C1416" stroke-width="2"/>
<circle cx="488.5" cy="521.5" r="8.5" fill="#8544E1" stroke="#0C1416" stroke-width="2"/>
<circle cx="267.5" cy="401.5" r="8.5" fill="#8544E1" stroke="#0C1416" stroke-width="2"/>
<circle cx="293.5" cy="310.5" r="8.5" fill="#8544E1" stroke="#0C1416" stroke-width="2"/>
<circle cx="426.5" cy="310.5" r="8.5" fill="#8544E1" stroke="#0C1416" stroke-width="2"/>
<circle cx="330.5" cy="190.5" r="8.5" fill="#8544E1" stroke="#0C1416" stroke-width="2"/>
<circle cx="389.5" cy="190.5" r="8.5" fill="#8544E1" stroke="#0C1416" stroke-width="2"/>
<circle cx="360.5" cy="91.5" r="8.5" fill="#8544E1" stroke="#0C1416" stroke-width="2"/>
<circle cx="293.5" cy="9.5" r="8.5" fill="#8544E1" stroke="#0C1416" stroke-width="2"/>
<circle cx="426.5" cy="9.5" r="8.5" fill="#8544E1" stroke="#0C1416" stroke-width="2"/>
<circle cx="674.5" cy="160.5" r="8.5" fill="#8544E1" stroke="#0C1416" stroke-width="2"/>
<circle cx="708.5" cy="233.5" r="8.5" fill="#8544E1" stroke="#0C1416" stroke-width="2"/>
<circle cx="743.5" cy="131.5" r="8.5" fill="#8544E1" stroke="#0C1416" stroke-width="2"/>
<circle cx="762.5" cy="214.5" r="8.5" fill="#8544E1" stroke="#0C1416" stroke-width="2"/>
<circle cx="822.5" cy="124.5" r="8.5" fill="#8544E1" stroke="#0C1416" stroke-width="2"/>
<circle cx="818.5" cy="204.5" r="8.5" fill="#8544E1" stroke="#0C1416" stroke-width="2"/>
<circle cx="943.5" cy="158.5" r="8.5" fill="#8544E1" stroke="#0C1416" stroke-width="2"/>
<circle cx="862.5" cy="216.5" r="8.5" fill="#8544E1" stroke="#0C1416" stroke-width="2"/>
<circle cx="877.5" cy="279.5" r="8.5" fill="#8544E1" stroke="#0C1416" stroke-width="2"/>
<circle cx="811.5" cy="279.5" r="8.5" fill="#8544E1" stroke="#0C1416" stroke-width="2"/>
<line x1="636.785" y1="328.615" x2="633" y2="474.026" stroke="#0C1416" stroke-width="2"/>
<circle cx="637.629" cy="330.351" r="6.5" transform="rotate(122.387 637.629 330.351)" fill="#F75B5B" stroke="#0C1416" stroke-width="2"/>
<circle cx="632.351" cy="474.351" r="6.5" transform="rotate(122.387 632.351 474.351)" fill="#F75B5B" stroke="#0C1416" stroke-width="2"/>
<circle cx="678.5" cy="314.5" r="8.5" fill="#8544E1" stroke="#0C1416" stroke-width="2"/>
<circle cx="635.5" cy="408.5" r="8.5" fill="#8544E1" stroke="#0C1416" stroke-width="2"/>
<circle cx="651.5" cy="475.5" r="8.5" fill="#8544E1" stroke="#0C1416" stroke-width="2"/>
<circle cx="693.5" cy="515.5" r="8.5" fill="#8544E1" stroke="#0C1416" stroke-width="2"/>
<circle cx="756.5" cy="528.5" r="8.5" fill="#8544E1" stroke="#0C1416" stroke-width="2"/>
<circle cx="811.5" cy="521.5" r="8.5" fill="#8544E1" stroke="#0C1416" stroke-width="2"/>
<circle cx="854.5" cy="505.5" r="8.5" fill="#8544E1" stroke="#0C1416" stroke-width="2"/>
<circle cx="888.5" cy="470.5" r="8.5" fill="#8544E1" stroke="#0C1416" stroke-width="2"/>
<circle cx="909.5" cy="521.5" r="8.5" fill="#8544E1" stroke="#0C1416" stroke-width="2"/>
<circle cx="984.5" cy="521.5" r="8.5" fill="#8544E1" stroke="#0C1416" stroke-width="2"/>
<circle cx="877.5" cy="342.5" r="8.5" fill="#8544E1" stroke="#0C1416" stroke-width="2"/>
<circle cx="864.5" cy="417.5" r="8.5" fill="#8544E1" stroke="#0C1416" stroke-width="2"/>
<circle cx="811.5" cy="446.5" r="8.5" fill="#8544E1" stroke="#0C1416" stroke-width="2"/>
<circle cx="752.5" cy="427.5" r="8.5" fill="#8544E1" stroke="#0C1416" stroke-width="2"/>
<circle cx="765.5" cy="361.5" r="8.5" fill="#8544E1" stroke="#0C1416" stroke-width="2"/>
<circle cx="985.5" cy="260.5" r="8.5" fill="#8544E1" stroke="#0C1416" stroke-width="2"/>
<circle cx="452.5" cy="401.5" r="8.5" fill="#8544E1" stroke="#0C1416" stroke-width="2"/>
<circle cx="605.5" cy="521.5" r="8.5" fill="#8544E1" stroke="#0C1416" stroke-width="2"/>
</svg>
