<svg width="1280" height="1064" viewBox="0 0 1280 1064" fill="none" xmlns="http://www.w3.org/2000/svg">
<g clip-path="url(#clip0_254_818)">
<rect width="1280" height="1064" fill="#FDC62E"/>
<path d="M1084 969.886C1109.41 969.886 1130 949.291 1130 923.886C1130 898.481 1109.41 877.886 1084 877.886C1058.59 877.886 1038 898.481 1038 923.886C1038 949.291 1058.59 969.886 1084 969.886ZM1175 923.886C1175 974.144 1134.26 1014.89 1084 1014.89C1033.74 1014.89 993 974.144 993 923.886C993 873.628 1033.74 832.886 1084 832.886C1134.26 832.886 1175 873.628 1175 923.886Z" fill="#29D68D" stroke="#0C1416" stroke-width="2"/>
<mask id="path-2-inside-1_254_818" fill="white">
<path d="M1.85407e-05 675.727C1.69678e-05 657.772 3.54363 639.992 10.4285 623.404C17.3134 606.815 27.4048 591.742 40.1264 579.046C52.848 566.349 67.9508 556.278 84.5724 549.407C101.194 542.535 119.009 538.999 137 538.999C154.991 538.999 172.806 542.535 189.428 549.407C206.049 556.278 221.152 566.349 233.874 579.046C246.595 591.742 256.687 606.815 263.571 623.404C270.456 639.992 274 657.772 274 675.727L137 675.727L1.85407e-05 675.727Z"/>
</mask>
<path d="M1.85407e-05 675.727C1.69678e-05 657.772 3.54363 639.992 10.4285 623.404C17.3134 606.815 27.4048 591.742 40.1264 579.046C52.848 566.349 67.9508 556.278 84.5724 549.407C101.194 542.535 119.009 538.999 137 538.999C154.991 538.999 172.806 542.535 189.428 549.407C206.049 556.278 221.152 566.349 233.874 579.046C246.595 591.742 256.687 606.815 263.571 623.404C270.456 639.992 274 657.772 274 675.727L137 675.727L1.85407e-05 675.727Z" fill="#F75B5B" stroke="black" stroke-width="4" mask="url(#path-2-inside-1_254_818)"/>
<mask id="path-3-inside-2_254_818" fill="white">
<path d="M1.85407e-05 812.201C1.69678e-05 794.245 3.54363 776.466 10.4285 759.877C17.3134 743.288 27.4048 728.215 40.1264 715.519C52.848 702.823 67.9508 692.751 84.5724 685.88C101.194 679.009 119.009 675.472 137 675.472C154.991 675.472 172.806 679.009 189.428 685.88C206.049 692.751 221.152 702.823 233.874 715.519C246.595 728.215 256.687 743.288 263.571 759.877C270.456 776.466 274 794.245 274 812.201L137 812.201L1.85407e-05 812.201Z"/>
</mask>
<path d="M1.85407e-05 812.201C1.69678e-05 794.245 3.54363 776.466 10.4285 759.877C17.3134 743.288 27.4048 728.215 40.1264 715.519C52.848 702.823 67.9508 692.751 84.5724 685.88C101.194 679.009 119.009 675.472 137 675.472C154.991 675.472 172.806 679.009 189.428 685.88C206.049 692.751 221.152 702.823 233.874 715.519C246.595 728.215 256.687 743.288 263.571 759.877C270.456 776.466 274 794.245 274 812.201L137 812.201L1.85407e-05 812.201Z" fill="#F75B5B" stroke="black" stroke-width="4" mask="url(#path-3-inside-2_254_818)"/>
<mask id="path-4-inside-3_254_818" fill="white">
<path d="M1.85407e-05 949.101C1.69678e-05 931.146 3.54363 913.366 10.4285 896.778C17.3134 880.189 27.4048 865.116 40.1264 852.42C52.848 839.723 67.9508 829.652 84.5724 822.781C101.194 815.909 119.009 812.373 137 812.373C154.991 812.373 172.806 815.909 189.428 822.781C206.049 829.652 221.152 839.723 233.874 852.42C246.595 865.116 256.687 880.189 263.571 896.778C270.456 913.366 274 931.146 274 949.101L137 949.101L1.85407e-05 949.101Z"/>
</mask>
<path d="M1.85407e-05 949.101C1.69678e-05 931.146 3.54363 913.366 10.4285 896.778C17.3134 880.189 27.4048 865.116 40.1264 852.42C52.848 839.723 67.9508 829.652 84.5724 822.781C101.194 815.909 119.009 812.373 137 812.373C154.991 812.373 172.806 815.909 189.428 822.781C206.049 829.652 221.152 839.723 233.874 852.42C246.595 865.116 256.687 880.189 263.571 896.778C270.456 913.366 274 931.146 274 949.101L137 949.101L1.85407e-05 949.101Z" fill="#F75B5B" stroke="black" stroke-width="4" mask="url(#path-4-inside-3_254_818)"/>
<path d="M695.761 233.758L735.362 188.927L728.544 248.354L728.343 250.114L729.953 249.378L784.365 224.53L753.966 276.047L753.066 277.572L754.837 277.555L814.651 276.987L765.926 311.685L764.484 312.712L766.108 313.417L820.982 337.226L762.357 349.106L760.622 349.458L761.819 350.763L802.265 394.833L743.876 381.841L742.147 381.457L742.71 383.135L761.735 439.846L713.678 404.229L712.255 403.174L712.087 404.937L706.4 464.483L676.985 412.398L676.114 410.856L675.243 412.398L645.828 464.483L640.141 404.937L639.973 403.174L638.55 404.229L590.494 439.846L609.518 383.135L610.081 381.457L608.352 381.841L549.963 394.833L590.409 350.763L591.607 349.458L589.871 349.106L531.246 337.226L586.12 313.417L587.744 312.712L586.302 311.685L537.577 276.987L597.391 277.555L599.162 277.572L598.262 276.047L567.863 224.53L622.275 249.378L623.886 250.114L623.684 248.354L616.866 188.927L656.467 233.758L657.64 235.085L658.171 233.396L676.114 176.334L694.057 233.396L694.588 235.085L695.761 233.758Z" fill="#8544E1" stroke="black" stroke-width="2"/>
<path d="M1034.62 268.974C1031.58 282.9 1027.54 293.626 1017.34 303.827C1014.3 306.862 1009.17 311.583 1004.52 311.749C998.185 311.975 989.415 308.564 990.62 300.731C992.827 286.385 1013.19 289.399 1016.18 301.379C1019.19 313.414 1021.03 322.486 1009.85 329.319C1008.2 330.327 985.236 341.498 993.14 345.45" stroke="black" stroke-width="3" stroke-linecap="round"/>
</g>
<defs>
<clipPath id="clip0_254_818">
<rect width="1280" height="1064" fill="white"/>
</clipPath>
</defs>
</svg>
