<svg width="1280" height="537" viewBox="0 0 1280 537" fill="none" xmlns="http://www.w3.org/2000/svg">
<rect width="1280" height="537" fill="#FCC223"/>
<path d="M969 201C994.405 201 1015 180.405 1015 155C1015 129.595 994.405 109 969 109C943.595 109 923 129.595 923 155C923 180.405 943.595 201 969 201ZM1060 155C1060 205.258 1019.26 246 969 246C918.742 246 878 205.258 878 155C878 104.742 918.742 63.9999 969 63.9999C1019.26 63.9999 1060 104.742 1060 155Z" fill="#29D68D" stroke="#0C1416" stroke-width="2"/>
<mask id="path-2-inside-1_263_729" fill="white">
<path d="M229.656 282.675C217.882 269.101 208.897 253.341 203.214 236.295C197.531 219.249 195.261 201.25 196.534 183.326C197.807 165.403 202.598 147.905 210.633 131.833C218.668 115.761 229.79 101.429 243.364 89.6555C256.938 77.8818 272.698 68.8969 289.744 63.214C306.791 57.531 324.79 55.2612 342.713 56.5341C360.637 57.8071 378.134 62.5979 394.206 70.633C410.278 78.6681 424.61 89.7901 436.384 103.364L333.02 193.02L229.656 282.675Z"/>
</mask>
<path d="M229.656 282.675C217.882 269.101 208.897 253.341 203.214 236.295C197.531 219.249 195.261 201.25 196.534 183.326C197.807 165.403 202.598 147.905 210.633 131.833C218.668 115.761 229.79 101.429 243.364 89.6555C256.938 77.8818 272.698 68.8969 289.744 63.214C306.791 57.531 324.79 55.2612 342.713 56.5341C360.637 57.8071 378.134 62.5979 394.206 70.633C410.278 78.6681 424.61 89.7901 436.384 103.364L333.02 193.02L229.656 282.675Z" fill="#F75B5B" stroke="black" stroke-width="4" mask="url(#path-2-inside-1_263_729)"/>
<path d="M545.698 277.952L578.347 227.831L580.258 287.617L580.315 289.387L581.801 288.425L632.013 255.916L609.442 311.311L608.774 312.951L610.523 312.676L669.617 303.402L626.466 344.827L625.188 346.053L626.898 346.514L684.655 362.077L628.385 382.369L626.72 382.97L628.094 384.086L674.528 421.796L614.869 417.447L613.103 417.318L613.905 418.897L640.987 472.232L588.254 443.994L586.693 443.158L586.784 444.927L589.831 504.666L553.143 457.421L552.057 456.023L551.42 457.675L529.905 513.489L515.605 455.406L515.182 453.687L513.928 454.937L471.572 497.175L482.133 438.298L482.445 436.555L480.791 437.187L424.917 458.545L458.513 409.054L459.507 407.589L457.739 407.493L398.009 404.279L448.829 372.731L450.334 371.797L448.757 370.991L395.498 343.76L454.757 335.61L456.511 335.368L455.399 333.991L417.82 287.451L475.271 304.109L476.972 304.602L476.516 302.891L461.115 245.09L506.824 283.675L508.177 284.817L508.456 283.069L517.896 224.001L543.96 277.842L544.731 279.435L545.698 277.952Z" fill="#8544E1" stroke="black" stroke-width="2"/>
<path d="M1043.11 262C1040.07 275.925 1036.03 286.652 1025.83 296.853C1022.79 299.888 1017.66 304.608 1013.01 304.774C1006.68 305 997.907 301.59 999.112 293.757C1001.32 279.41 1021.68 282.425 1024.68 294.405C1027.68 306.44 1029.52 315.511 1018.34 322.345C1016.69 323.353 993.728 334.523 1001.63 338.475" stroke="black" stroke-width="3" stroke-linecap="round"/>
</svg>
