<svg width="1280" height="533" viewBox="0 0 1280 533" fill="none" xmlns="http://www.w3.org/2000/svg">
<rect width="1280" height="533" fill="#FCC223"/>
<path d="M790 427C815.405 427 836 406.405 836 381C836 355.595 815.405 335 790 335C764.595 335 744 355.595 744 381C744 406.405 764.595 427 790 427ZM881 381C881 431.258 840.258 472 790 472C739.742 472 699 431.258 699 381C699 330.742 739.742 290 790 290C840.258 290 881 330.742 881 381Z" fill="#29D68D" stroke="#0C1416" stroke-width="2"/>
<mask id="path-2-inside-1_263_730" fill="white">
<path d="M632.766 358.483C630.131 376.258 624.021 393.339 614.784 408.752C605.548 424.165 593.366 437.608 578.934 448.313C564.502 459.018 548.103 466.775 530.674 471.143C513.244 475.51 495.124 476.402 477.35 473.766C459.575 471.131 442.494 465.021 427.081 455.784C411.668 446.548 398.226 434.366 387.52 419.934C376.815 405.502 369.058 389.103 364.69 371.673C360.323 354.244 359.432 336.124 362.067 318.35L497.417 338.417L632.766 358.483Z"/>
</mask>
<path d="M632.766 358.483C630.131 376.258 624.021 393.339 614.784 408.752C605.548 424.165 593.366 437.608 578.934 448.313C564.502 459.018 548.103 466.775 530.674 471.143C513.244 475.51 495.124 476.402 477.35 473.766C459.575 471.131 442.494 465.021 427.081 455.784C411.668 446.548 398.226 434.366 387.52 419.934C376.815 405.502 369.058 389.103 364.69 371.673C360.323 354.244 359.432 336.124 362.067 318.35L497.417 338.417L632.766 358.483Z" fill="#F75B5B" stroke="black" stroke-width="4" mask="url(#path-2-inside-1_263_730)"/>
<mask id="path-3-inside-2_263_730" fill="white">
<path d="M666.926 123.009C674.796 106.855 685.77 92.4094 699.222 80.4968C712.675 68.5843 728.342 59.4381 745.329 53.5804C762.316 47.7226 780.29 45.2681 798.226 46.3569C816.162 47.4457 833.707 52.0566 849.861 59.9262C866.015 67.7958 880.46 78.7701 892.373 92.2225C904.285 105.675 913.431 121.342 919.289 138.329C925.147 155.316 927.601 173.29 926.513 191.226C925.424 209.162 920.813 226.707 912.943 242.861L789.935 182.935L666.926 123.009Z"/>
</mask>
<path d="M666.926 123.009C674.796 106.855 685.77 92.4094 699.222 80.4968C712.675 68.5843 728.342 59.4381 745.329 53.5804C762.316 47.7226 780.29 45.2681 798.226 46.3569C816.162 47.4457 833.707 52.0566 849.861 59.9262C866.015 67.7958 880.46 78.7701 892.373 92.2225C904.285 105.675 913.431 121.342 919.289 138.329C925.147 155.316 927.601 173.29 926.513 191.226C925.424 209.162 920.813 226.707 912.943 242.861L789.935 182.935L666.926 123.009Z" fill="#F75B5B" stroke="black" stroke-width="4" mask="url(#path-3-inside-2_263_730)"/>
<path d="M225.698 92.9517L258.347 42.8305L260.258 102.617L260.315 104.387L261.801 103.425L312.013 70.9161L289.442 126.311L288.774 127.951L290.523 127.676L349.617 118.402L306.466 159.827L305.188 161.053L306.898 161.514L364.655 177.077L308.385 197.369L306.72 197.97L308.094 199.086L354.528 236.796L294.869 232.447L293.103 232.318L293.905 233.897L320.987 287.232L268.254 258.994L266.693 258.158L266.784 259.927L269.831 319.666L233.143 272.421L232.057 271.023L231.42 272.675L209.905 328.489L195.605 270.406L195.182 268.687L193.928 269.937L151.572 312.175L162.133 253.298L162.445 251.555L160.791 252.187L104.917 273.545L138.513 224.054L139.507 222.589L137.739 222.493L78.0085 219.279L128.829 187.731L130.334 186.797L128.757 185.991L75.498 158.76L134.757 150.61L136.511 150.368L135.399 148.991L97.8201 102.451L155.271 119.109L156.972 119.602L156.516 117.891L141.115 60.0904L186.824 98.675L188.177 99.8172L188.456 98.0687L197.896 39.0013L223.96 92.8416L224.731 94.4353L225.698 92.9517Z" fill="#8544E1" stroke="black" stroke-width="2"/>
<path d="M960.58 150.175L992.333 164.229L993.083 164.561L993.556 163.891L1013.55 135.5L1026.07 167.891L1026.36 168.656L1027.17 168.516L1061.38 162.58L1047.33 194.333L1047 195.083L1047.67 195.556L1076.06 215.551L1043.67 228.066L1042.9 228.361L1043.04 229.169L1048.98 263.383L1017.22 249.329L1016.47 248.997L1016 249.667L996.007 278.057L983.492 245.667L983.197 244.901L982.388 245.042L948.175 250.978L962.229 219.225L962.561 218.475L961.891 218.002L933.501 198.007L965.891 185.492L966.656 185.196L966.516 184.388L960.58 150.175Z" fill="#1070FF" stroke="black" stroke-width="2"/>
</svg>
