<svg width="1280" height="725" viewBox="0 0 1280 725" fill="none" xmlns="http://www.w3.org/2000/svg">
<rect width="1280" height="725" fill="#FDC62E"/>
<path d="M991.143 469.916L1025.82 468.001L1026.63 467.955L1026.75 467.143L1031.65 432.767L1057.53 455.929L1058.14 456.476L1058.79 455.983L1086.57 435.144L1088.48 469.815L1088.53 470.634L1089.34 470.75L1123.72 475.655L1100.56 501.526L1100.01 502.137L1100.5 502.793L1121.34 530.569L1086.67 532.485L1085.85 532.53L1085.73 533.342L1080.83 567.718L1054.96 544.557L1054.35 544.009L1053.69 544.502L1025.92 565.342L1024 530.67L1023.96 529.851L1023.14 529.735L988.767 524.831L1011.93 498.959L1012.48 498.348L1011.98 497.692L991.143 469.916Z" fill="#1070FF" stroke="black" stroke-width="2"/>
<path d="M223.603 354.209L233.883 304.01L254.182 351.058L254.884 352.684L255.914 351.244L285.723 309.566L285.131 360.804L285.11 362.574L286.637 361.678L330.821 335.728L309.44 382.295L308.701 383.904L310.461 383.706L361.38 377.97L322.906 411.815L321.577 412.984L323.265 413.519L372.115 428.99L323.202 444.26L321.511 444.788L322.836 445.963L361.17 479.965L310.275 474.021L308.516 473.815L309.248 475.427L330.438 522.082L286.361 495.95L284.838 495.047L284.851 496.818L285.232 548.057L255.595 506.257L254.57 504.813L253.862 506.436L233.37 553.401L223.296 503.159L222.948 501.423L221.641 502.618L183.818 537.187L195.05 487.192L195.438 485.465L193.758 486.025L145.144 502.221L175.74 461.117L176.797 459.697L175.035 459.525L124.036 454.548L168.706 429.442L170.249 428.575L168.709 427.701L124.144 402.411L175.162 397.644L176.925 397.48L175.874 396.055L145.448 354.825L193.994 371.222L195.672 371.789L195.291 370.059L184.265 320.019L221.945 354.744L223.247 355.944L223.603 354.209Z" fill="#8544E1" stroke="black" stroke-width="2"/>
<line x1="910.08" y1="163.9" x2="1116.34" y2="328.864" stroke="#0C1416" stroke-width="3"/>
<circle cx="911.66" cy="164.66" r="6" transform="rotate(69.3935 911.66 164.66)" fill="#F75B5B" stroke="#0C1416" stroke-width="3"/>
<circle cx="1116.04" cy="330.327" r="6" transform="rotate(69.3935 1116.04 330.327)" fill="#F75B5B" stroke="#0C1416" stroke-width="3"/>
<mask id="path-6-outside-1_265_731" maskUnits="userSpaceOnUse" x="184" y="96" width="874" height="522" fill="black">
<rect fill="white" x="184" y="96" width="874" height="522"/>
<path d="M562.511 609.038L525.621 487.892H340.128L303.238 609.038H187L366.577 98H498.476L678.749 609.038H562.511ZM499.868 397.382L462.978 279.021C460.658 271.131 457.526 261.035 453.582 248.735C449.869 236.203 446.041 223.555 442.097 210.79C438.385 197.794 435.369 186.538 433.048 177.023C430.728 186.538 427.48 198.374 423.304 212.531C419.36 226.456 415.532 239.684 411.819 252.216C408.107 264.749 405.439 273.684 403.815 279.021L367.273 397.382H499.868Z"/>
<path d="M894.172 211.835C946.374 211.835 986.396 223.207 1014.24 245.95C1042.08 268.694 1056 303.274 1056 349.69V609.038H981.872L961.339 556.124H958.555C947.419 570.048 936.05 581.42 924.449 590.239C912.849 599.058 899.508 605.556 884.427 609.734C869.347 613.911 851.018 616 829.441 616C806.471 616 785.822 611.591 767.493 602.772C749.396 593.953 735.128 580.492 724.687 562.39C714.247 544.056 709.026 520.848 709.026 492.766C709.026 451.456 723.527 421.054 752.529 401.559C781.53 381.832 825.032 370.925 883.035 368.836L950.551 366.747V349.69C950.551 329.267 945.214 314.297 934.542 304.782C923.869 295.267 909.021 290.509 889.996 290.509C871.203 290.509 852.758 293.178 834.661 298.516C816.564 303.854 798.467 310.584 780.37 318.707L745.22 246.995C765.869 236.087 788.954 227.5 814.476 221.234C840.229 214.968 866.794 211.835 894.172 211.835ZM950.551 428.712L909.485 430.105C875.147 431.033 851.25 437.183 837.793 448.555C824.568 459.927 817.956 474.896 817.956 493.462C817.956 509.708 822.712 521.312 832.225 528.274C841.737 535.004 854.15 538.37 869.463 538.37C892.2 538.37 911.341 531.639 926.885 518.179C942.662 504.718 950.551 485.572 950.551 460.739V428.712Z"/>
</mask>
<path d="M562.511 609.038L525.621 487.892H340.128L303.238 609.038H187L366.577 98H498.476L678.749 609.038H562.511ZM499.868 397.382L462.978 279.021C460.658 271.131 457.526 261.035 453.582 248.735C449.869 236.203 446.041 223.555 442.097 210.79C438.385 197.794 435.369 186.538 433.048 177.023C430.728 186.538 427.48 198.374 423.304 212.531C419.36 226.456 415.532 239.684 411.819 252.216C408.107 264.749 405.439 273.684 403.815 279.021L367.273 397.382H499.868Z" fill="#F75B5B"/>
<path d="M894.172 211.835C946.374 211.835 986.396 223.207 1014.24 245.95C1042.08 268.694 1056 303.274 1056 349.69V609.038H981.872L961.339 556.124H958.555C947.419 570.048 936.05 581.42 924.449 590.239C912.849 599.058 899.508 605.556 884.427 609.734C869.347 613.911 851.018 616 829.441 616C806.471 616 785.822 611.591 767.493 602.772C749.396 593.953 735.128 580.492 724.687 562.39C714.247 544.056 709.026 520.848 709.026 492.766C709.026 451.456 723.527 421.054 752.529 401.559C781.53 381.832 825.032 370.925 883.035 368.836L950.551 366.747V349.69C950.551 329.267 945.214 314.297 934.542 304.782C923.869 295.267 909.021 290.509 889.996 290.509C871.203 290.509 852.758 293.178 834.661 298.516C816.564 303.854 798.467 310.584 780.37 318.707L745.22 246.995C765.869 236.087 788.954 227.5 814.476 221.234C840.229 214.968 866.794 211.835 894.172 211.835ZM950.551 428.712L909.485 430.105C875.147 431.033 851.25 437.183 837.793 448.555C824.568 459.927 817.956 474.896 817.956 493.462C817.956 509.708 822.712 521.312 832.225 528.274C841.737 535.004 854.15 538.37 869.463 538.37C892.2 538.37 911.341 531.639 926.885 518.179C942.662 504.718 950.551 485.572 950.551 460.739V428.712Z" fill="#29D68D"/>
<path d="M562.511 609.038L560.598 609.62L561.029 611.038H562.511V609.038ZM525.621 487.892L527.534 487.31L527.103 485.892H525.621V487.892ZM340.128 487.892V485.892H338.646L338.214 487.31L340.128 487.892ZM303.238 609.038V611.038H304.72L305.151 609.62L303.238 609.038ZM187 609.038L185.113 608.375L184.177 611.038H187V609.038ZM366.577 98V96H365.16L364.69 97.337L366.577 98ZM498.476 98L500.362 97.3347L499.891 96H498.476V98ZM678.749 609.038V611.038H681.575L680.635 608.372L678.749 609.038ZM499.868 397.382V399.382H502.586L501.777 396.787L499.868 397.382ZM462.978 279.021L461.059 279.586L461.064 279.601L461.069 279.617L462.978 279.021ZM453.582 248.735L451.664 249.303L451.67 249.325L451.677 249.346L453.582 248.735ZM442.097 210.79L440.174 211.34L440.18 211.36L440.186 211.381L442.097 210.79ZM433.048 177.023L434.992 176.549H431.105L433.048 177.023ZM423.304 212.531L421.386 211.965L421.383 211.975L421.38 211.986L423.304 212.531ZM403.815 279.021L405.726 279.611L405.728 279.604L403.815 279.021ZM367.273 397.382L365.362 396.792L364.563 399.382H367.273V397.382ZM1056 609.038V611.038H1058V609.038H1056ZM981.872 609.038L980.008 609.761L980.503 611.038H981.872V609.038ZM961.339 556.124L963.204 555.4L962.708 554.124H961.339V556.124ZM958.555 556.124V554.124H957.594L956.993 554.874L958.555 556.124ZM767.493 602.772L766.617 604.569L766.626 604.574L767.493 602.772ZM724.687 562.39L722.949 563.379L722.955 563.389L724.687 562.39ZM752.529 401.559L753.644 403.219L753.653 403.213L752.529 401.559ZM883.035 368.836L882.973 366.837L882.963 366.837L883.035 368.836ZM950.551 366.747L950.612 368.746L952.551 368.686V366.747H950.551ZM780.37 318.707L778.574 319.587L779.425 321.323L781.189 320.532L780.37 318.707ZM745.22 246.995L744.286 245.226L742.57 246.133L743.424 247.875L745.22 246.995ZM814.476 221.234L814.003 219.291L813.999 219.292L814.476 221.234ZM950.551 428.712H952.551V426.643L950.483 426.714L950.551 428.712ZM909.485 430.105L909.539 432.104L909.552 432.104L909.485 430.105ZM837.793 448.555L836.502 447.028L836.495 447.033L836.489 447.039L837.793 448.555ZM832.225 528.274L831.043 529.888L831.056 529.898L831.07 529.907L832.225 528.274ZM926.885 518.179L925.587 516.657L925.582 516.662L925.576 516.667L926.885 518.179ZM564.424 608.455L527.534 487.31L523.708 488.475L560.598 609.62L564.424 608.455ZM525.621 485.892H340.128V489.892H525.621V485.892ZM338.214 487.31L301.325 608.455L305.151 609.62L342.041 488.475L338.214 487.31ZM303.238 607.038H187V611.038H303.238V607.038ZM188.887 609.701L368.464 98.663L364.69 97.337L185.113 608.375L188.887 609.701ZM366.577 100H498.476V96H366.577V100ZM496.59 98.6653L676.863 609.703L680.635 608.372L500.362 97.3347L496.59 98.6653ZM678.749 607.038H562.511V611.038H678.749V607.038ZM501.777 396.787L464.887 278.426L461.069 279.617L497.958 397.977L501.777 396.787ZM464.897 278.457C462.57 270.545 459.433 260.433 455.486 248.125L451.677 249.346C455.619 261.638 458.745 271.717 461.059 279.586L464.897 278.457ZM455.499 248.167C451.785 235.627 447.954 222.971 444.008 210.2L440.186 211.381C444.128 224.138 447.954 236.779 451.664 249.303L455.499 248.167ZM444.02 210.241C440.313 197.261 437.304 186.032 434.992 176.549L431.105 177.497C433.433 187.045 436.457 198.327 440.174 211.34L444.02 210.241ZM431.105 176.549C428.796 186.022 425.557 197.825 421.386 211.965L425.222 213.097C429.403 198.923 432.661 187.054 434.992 177.497L431.105 176.549ZM421.38 211.986C417.437 225.904 413.611 239.125 409.902 251.648L413.737 252.784C417.452 240.244 421.282 227.008 425.228 213.076L421.38 211.986ZM409.902 251.648C406.19 264.18 403.523 273.109 401.902 278.439L405.728 279.604C407.355 274.258 410.025 265.317 413.737 252.784L409.902 251.648ZM401.904 278.432L365.362 396.792L369.184 397.972L405.726 279.611L401.904 278.432ZM367.273 399.382H499.868V395.382H367.273V399.382ZM894.172 213.835C946.116 213.835 985.619 225.154 1012.97 247.499L1015.5 244.401C987.174 221.259 946.633 209.835 894.172 209.835V213.835ZM1012.97 247.499C1040.22 269.758 1054 303.685 1054 349.69H1058C1058 302.862 1043.94 267.63 1015.5 244.401L1012.97 247.499ZM1054 349.69V609.038H1058V349.69H1054ZM1056 607.038H981.872V611.038H1056V607.038ZM983.737 608.314L963.204 555.4L959.475 556.847L980.008 609.761L983.737 608.314ZM961.339 554.124H958.555V558.124H961.339V554.124ZM956.993 554.874C945.937 568.698 934.683 579.947 923.239 588.647L925.66 591.831C937.416 582.894 948.9 571.398 960.117 557.373L956.993 554.874ZM923.239 588.647C911.855 597.301 898.748 603.692 883.893 607.806L884.961 611.661C900.268 607.421 913.842 600.815 925.66 591.831L923.239 588.647ZM883.893 607.806C869.038 611.921 850.9 614 829.441 614V618C851.135 618 869.655 615.901 884.961 611.661L883.893 607.806ZM829.441 614C806.733 614 786.386 609.642 768.361 600.969L766.626 604.574C785.259 613.539 806.21 618 829.441 618V614ZM768.37 600.974C750.646 592.336 736.669 579.161 726.42 561.391L722.955 563.389C733.587 581.823 748.147 595.569 766.617 604.569L768.37 600.974ZM726.425 561.4C716.204 543.451 711.026 520.612 711.026 492.766H707.026C707.026 521.084 712.289 544.66 722.949 563.379L726.425 561.4ZM711.026 492.766C711.026 451.982 725.302 422.27 753.644 403.219L751.413 399.899C721.752 419.837 707.026 450.93 707.026 492.766H711.026ZM753.653 403.213C782.201 383.795 825.26 372.918 883.107 370.835L882.963 366.837C824.805 368.932 780.859 379.87 751.404 399.905L753.653 403.213ZM883.097 370.835L950.612 368.746L950.489 364.748L882.973 366.837L883.097 370.835ZM952.551 366.747V349.69H948.551V366.747H952.551ZM952.551 349.69C952.551 328.947 947.128 313.324 935.873 303.289L933.211 306.275C943.301 315.271 948.551 329.586 948.551 349.69H952.551ZM935.873 303.289C924.727 293.352 909.346 288.509 889.996 288.509V292.509C908.695 292.509 923.012 297.182 933.211 306.275L935.873 303.289ZM889.996 288.509C871.01 288.509 852.375 291.206 834.095 296.598L835.227 300.434C853.141 295.151 871.395 292.509 889.996 292.509V288.509ZM834.095 296.598C815.907 301.962 797.726 308.725 779.551 316.882L781.189 320.532C799.208 312.444 817.22 305.745 835.227 300.434L834.095 296.598ZM782.166 317.827L747.016 246.114L743.424 247.875L778.574 319.587L782.166 317.827ZM746.154 248.763C766.642 237.941 789.571 229.408 814.953 223.176L813.999 219.292C788.338 225.592 765.097 234.233 744.286 245.226L746.154 248.763ZM814.949 223.177C840.542 216.95 866.948 213.835 894.172 213.835V209.835C866.64 209.835 839.916 212.986 814.003 219.291L814.949 223.177ZM950.483 426.714L909.417 428.106L909.552 432.104L950.618 430.711L950.483 426.714ZM909.431 428.106C875.007 429.036 850.509 435.191 836.502 447.028L839.084 450.083C851.99 439.176 875.287 433.03 909.539 432.104L909.431 428.106ZM836.489 447.039C822.791 458.817 815.956 474.356 815.956 493.462H819.956C819.956 475.436 826.346 461.036 839.097 450.072L836.489 447.039ZM815.956 493.462C815.956 510.086 820.838 522.418 831.043 529.888L833.406 526.66C824.587 520.205 819.956 509.33 819.956 493.462H815.956ZM831.07 529.907C841.012 536.941 853.865 540.37 869.463 540.37V536.37C854.435 536.37 842.463 533.068 833.38 526.642L831.07 529.907ZM869.463 540.37C892.626 540.37 912.247 533.5 928.195 519.691L925.576 516.667C910.434 529.779 891.773 536.37 869.463 536.37V540.37ZM928.184 519.7C944.494 505.784 952.551 486.03 952.551 460.739H948.551C948.551 485.113 940.83 503.652 925.587 516.657L928.184 519.7ZM952.551 460.739V428.712H948.551V460.739H952.551Z" fill="#0C1416" mask="url(#path-6-outside-1_265_731)"/>
<circle cx="182.5" cy="610.5" r="8.5" fill="#8544E1" stroke="#0C1416" stroke-width="2"/>
<circle cx="299.5" cy="610.5" r="8.5" fill="#8544E1" stroke="#0C1416" stroke-width="2"/>
<circle cx="559.5" cy="610.5" r="8.5" fill="#8544E1" stroke="#0C1416" stroke-width="2"/>
<circle cx="338.5" cy="490.5" r="8.5" fill="#8544E1" stroke="#0C1416" stroke-width="2"/>
<circle cx="364.5" cy="399.5" r="8.5" fill="#8544E1" stroke="#0C1416" stroke-width="2"/>
<circle cx="497.5" cy="399.5" r="8.5" fill="#8544E1" stroke="#0C1416" stroke-width="2"/>
<circle cx="401.5" cy="279.5" r="8.5" fill="#8544E1" stroke="#0C1416" stroke-width="2"/>
<circle cx="460.5" cy="279.5" r="8.5" fill="#8544E1" stroke="#0C1416" stroke-width="2"/>
<circle cx="431.5" cy="180.5" r="8.5" fill="#8544E1" stroke="#0C1416" stroke-width="2"/>
<circle cx="364.5" cy="98.5" r="8.5" fill="#8544E1" stroke="#0C1416" stroke-width="2"/>
<circle cx="497.5" cy="98.5" r="8.5" fill="#8544E1" stroke="#0C1416" stroke-width="2"/>
<circle cx="745.5" cy="249.5" r="8.5" fill="#8544E1" stroke="#0C1416" stroke-width="2"/>
<circle cx="779.5" cy="322.5" r="8.5" fill="#8544E1" stroke="#0C1416" stroke-width="2"/>
<circle cx="814.5" cy="220.5" r="8.5" fill="#8544E1" stroke="#0C1416" stroke-width="2"/>
<circle cx="833.5" cy="303.5" r="8.5" fill="#8544E1" stroke="#0C1416" stroke-width="2"/>
<circle cx="893.5" cy="213.5" r="8.5" fill="#8544E1" stroke="#0C1416" stroke-width="2"/>
<circle cx="889.5" cy="293.5" r="8.5" fill="#8544E1" stroke="#0C1416" stroke-width="2"/>
<circle cx="1014.5" cy="247.5" r="8.5" fill="#8544E1" stroke="#0C1416" stroke-width="2"/>
<circle cx="933.5" cy="305.5" r="8.5" fill="#8544E1" stroke="#0C1416" stroke-width="2"/>
<circle cx="948.5" cy="368.5" r="8.5" fill="#8544E1" stroke="#0C1416" stroke-width="2"/>
<circle cx="882.5" cy="368.5" r="8.5" fill="#8544E1" stroke="#0C1416" stroke-width="2"/>
<line x1="707.785" y1="417.615" x2="704" y2="563.026" stroke="#0C1416" stroke-width="2"/>
<circle cx="708.629" cy="419.351" r="6.5" transform="rotate(122.387 708.629 419.351)" fill="#F75B5B" stroke="#0C1416" stroke-width="2"/>
<circle cx="703.351" cy="563.351" r="6.5" transform="rotate(122.387 703.351 563.351)" fill="#F75B5B" stroke="#0C1416" stroke-width="2"/>
<circle cx="749.5" cy="403.5" r="8.5" fill="#8544E1" stroke="#0C1416" stroke-width="2"/>
<circle cx="706.5" cy="497.5" r="8.5" fill="#8544E1" stroke="#0C1416" stroke-width="2"/>
<circle cx="722.5" cy="564.5" r="8.5" fill="#8544E1" stroke="#0C1416" stroke-width="2"/>
<circle cx="764.5" cy="604.5" r="8.5" fill="#8544E1" stroke="#0C1416" stroke-width="2"/>
<circle cx="827.5" cy="617.5" r="8.5" fill="#8544E1" stroke="#0C1416" stroke-width="2"/>
<circle cx="882.5" cy="610.5" r="8.5" fill="#8544E1" stroke="#0C1416" stroke-width="2"/>
<circle cx="925.5" cy="594.5" r="8.5" fill="#8544E1" stroke="#0C1416" stroke-width="2"/>
<circle cx="959.5" cy="559.5" r="8.5" fill="#8544E1" stroke="#0C1416" stroke-width="2"/>
<circle cx="980.5" cy="610.5" r="8.5" fill="#8544E1" stroke="#0C1416" stroke-width="2"/>
<circle cx="1055.5" cy="610.5" r="8.5" fill="#8544E1" stroke="#0C1416" stroke-width="2"/>
<circle cx="948.5" cy="431.5" r="8.5" fill="#8544E1" stroke="#0C1416" stroke-width="2"/>
<circle cx="935.5" cy="506.5" r="8.5" fill="#8544E1" stroke="#0C1416" stroke-width="2"/>
<circle cx="882.5" cy="535.5" r="8.5" fill="#8544E1" stroke="#0C1416" stroke-width="2"/>
<circle cx="823.5" cy="516.5" r="8.5" fill="#8544E1" stroke="#0C1416" stroke-width="2"/>
<circle cx="836.5" cy="450.5" r="8.5" fill="#8544E1" stroke="#0C1416" stroke-width="2"/>
<circle cx="1056.5" cy="349.5" r="8.5" fill="#8544E1" stroke="#0C1416" stroke-width="2"/>
<circle cx="523.5" cy="490.5" r="8.5" fill="#8544E1" stroke="#0C1416" stroke-width="2"/>
<circle cx="676.5" cy="610.5" r="8.5" fill="#8544E1" stroke="#0C1416" stroke-width="2"/>
</svg>
