<svg width="684" height="567" viewBox="0 0 684 567" fill="none" xmlns="http://www.w3.org/2000/svg">
<g clip-path="url(#clip0_290_810)">
<rect width="684" height="567" rx="15" fill="#0C1416"/>
<circle cx="19.9048" cy="19.9048" r="3.98095" fill="#FF2F00"/>
<circle cx="33.8384" cy="19.9048" r="3.98095" fill="#FCC223"/>
<circle cx="47.7715" cy="19.9048" r="3.98095" fill="#38E452"/>
<rect x="67.6763" y="11.9429" width="598.381" height="13.9333" rx="1.99048" fill="#262B2E"/>
<rect y="38" width="684" height="571" fill="#E3F1FF"/>
<rect x="25" y="334" width="327" height="109" rx="10" fill="#0C1416"/>
<rect x="25" y="108" width="276" height="133" rx="10" fill="#0C1416"/>
<rect x="376" y="263" width="263" height="58" rx="10" fill="#0C1416"/>
<rect x="372" y="259" width="261" height="56" rx="9" fill="white"/>
<rect x="372" y="259" width="261" height="56" rx="9" stroke="#0C1416" stroke-width="2"/>
<rect x="489" y="461" width="160" height="58" rx="10" fill="#0C1416"/>
<rect x="489" y="461" width="160" height="58" rx="10" stroke="#0C1416"/>
<rect x="485" y="457" width="158" height="56" rx="9" fill="white"/>
<rect x="485" y="457" width="158" height="56" rx="9" stroke="#0C1416" stroke-width="2"/>
<rect x="31" y="104" width="274" height="131" rx="9" fill="#1070FF"/>
<rect x="31" y="104" width="274" height="131" rx="9" stroke="#0C1416" stroke-width="2"/>
<rect x="31" y="330" width="325" height="106" rx="9" fill="#1070FF"/>
<rect x="31" y="330" width="325" height="106" rx="9" stroke="#0C1416" stroke-width="2"/>
</g>
<defs>
<clipPath id="clip0_290_810">
<rect width="684" height="567" rx="15" fill="white"/>
</clipPath>
</defs>
</svg>
