<svg width="202" height="82" viewBox="0 0 202 82" fill="none" xmlns="http://www.w3.org/2000/svg">
<path d="M9.95322 22.2459H5.91689V39.4003H0V0.367188H5.91689V16.008H9.95322V0.367188H15.8701V39.4462H9.95322V22.2459Z" fill="white"/>
<path d="M26.0527 39.8588H24.906C20.1816 39.8588 17.6589 37.2902 17.6589 32.4741V24.6308H23.53V31.465C23.53 33.2539 24.1262 34.2171 25.4564 34.2171C26.8783 34.2171 27.3828 33.2539 27.3828 30.8688V29.9973C27.3828 27.1994 27.1076 26.2361 24.9519 23.4382L21.2366 18.5304C18.7139 15.2738 17.98 12.7511 17.98 8.85241V7.61399C17.98 2.43097 20.5944 0 25.2729 0H26.3737C31.2357 0 33.1621 2.15577 33.1621 6.78837V13.2098H27.4287V7.56812C27.4287 6.23796 27.1535 5.27475 25.7316 5.27475C24.3097 5.27475 23.9886 6.14623 23.9886 8.02679V8.76067C23.9886 10.9623 24.4014 12.1549 26.4196 14.7693L30.1807 19.6312C32.841 23.1172 33.7125 25.0895 33.7125 29.4927V30.7312C33.7125 36.4646 31.2357 39.8588 26.0527 39.8588Z" fill="white"/>
<path d="M48.8947 0.367188V6.05474H41.3266V16.2832H47.2435V22.2001H41.3266V33.4834H49.2158V39.4003H35.4097V0.367188H48.8947Z" fill="white"/>
<path d="M65.2235 32.0615H60.912L60.1323 39.4003H54.8116L59.5819 0.321289H66.5996L71.6908 39.4003H65.9574L65.2235 32.0615ZM64.5814 26.2364L63.0219 11.7881L61.5083 26.2364H64.5814Z" fill="white"/>
<path d="M78.6167 39.4462H72.6998V0.367188H82.332C86.2766 0.367188 88.2489 2.06428 88.2489 6.42168V13.3477C88.2489 16.6042 86.7353 17.8427 85.6803 18.3472C87.0105 18.9435 88.2489 19.9984 88.2489 22.6129V36.3272C88.2489 37.8867 88.5699 38.6206 88.8451 39.2169V39.4921H82.9741C82.6989 39.0793 82.3779 38.3913 82.3779 36.2814V24.4476C82.3779 22.7046 82.0568 21.9707 80.1762 21.9707H78.6626V39.4462H78.6167ZM78.6167 16.4208H80.1762C81.8274 16.4208 82.332 15.3658 82.332 13.6229V8.16465C82.332 6.46755 81.965 5.64194 80.1762 5.64194H78.6167V16.4208Z" fill="white"/>
<path d="M100.22 6.00888V39.4003H94.3492V6.00888H89.3496V0.367188H105.22V6.05474H100.22V6.00888Z" fill="white"/>
<path d="M121.09 32.0615H116.778L115.999 39.4003H110.678L115.448 0.321289H122.466L127.557 39.4003H121.824L121.09 32.0615ZM120.448 26.2364L118.888 11.7881L117.375 26.2364H120.448Z" fill="white"/>
<path d="M133.887 0.367188L138.978 21.3286V0.367188H144.391V39.4462H139.575L133.887 16.9712V39.4462H128.521V0.367188H133.887Z" fill="white"/>
<path d="M146.592 0.367188H155.72C160.811 0.367188 162.371 3.25683 162.371 7.88944V31.6946C162.371 36.4648 160.582 39.4462 155.72 39.4462H146.638V0.367188H146.592ZM152.555 33.7587H153.977C155.766 33.7587 156.27 32.7954 156.27 30.7314V8.71505C156.27 6.46755 155.674 5.68781 154.206 5.68781H152.509V33.7587H152.555Z" fill="white"/>
<path d="M0 41.4639H9.08174C14.173 41.4639 15.7325 44.3535 15.7325 48.9861V72.7913C15.7325 77.5615 13.9437 80.5429 9.08174 80.5429H0V41.4639ZM5.91689 74.9012H7.33878C9.12761 74.9012 9.63215 73.938 9.63215 71.874V49.8576C9.63215 47.6101 9.03588 46.8304 7.56812 46.8304H5.87103V74.9012H5.91689Z" fill="white"/>
<path d="M31.3733 41.4639V47.1514H23.8052V57.3799H29.7221V63.2967H23.8052V74.5801H31.6944V80.497H17.8424V41.4639H31.3733Z" fill="white"/>
<path d="M41.143 80.955H39.9963C35.272 80.955 32.7493 78.3864 32.7493 73.5704V65.727H38.6203V72.5613C38.6203 74.3501 39.2166 75.3133 40.5467 75.3133C41.9686 75.3133 42.4732 74.3501 42.4732 71.965V71.0935C42.4732 68.2956 42.198 67.3324 40.0422 64.5345L36.2811 59.7184C33.7583 56.4618 33.0245 53.9391 33.0245 50.0404V48.802C33.0245 43.619 35.6389 41.188 40.3174 41.188H41.4182C46.326 41.188 48.2066 43.3438 48.2066 47.9764V54.3978H42.4732V48.7561C42.4732 47.4259 42.1979 46.4627 40.7761 46.4627C39.3542 46.4627 39.0331 47.3342 39.0331 49.2148V49.9487C39.0331 52.1503 39.4459 53.3428 41.4641 55.9573L45.2252 60.8192C47.8855 64.3052 48.757 66.2774 48.757 70.6807V71.9191C48.8029 77.5608 46.326 80.955 41.143 80.955Z" fill="white"/>
<path d="M56.4169 80.5429H50.5V41.4639H56.4169V80.5429Z" fill="white"/>
<path d="M64.1226 81.0935C60.6367 81.0935 58.4351 77.9746 58.4351 73.9382V49.4909C58.4351 45.1335 60.1322 41.0972 65.728 41.0972H66.8747C73.2502 41.0972 73.9841 45.2252 73.9841 49.8578V53.8483H68.2048V49.445C68.2048 47.7021 67.792 46.7847 66.3243 46.7847C65.0858 46.7847 64.4896 47.7479 64.4896 49.445V72.287C64.4896 74.1217 65.2234 75.0849 66.416 75.0849C67.9296 75.0849 68.6176 74.03 68.6176 72.5622V62.7924H65.9573V56.7838H74.2593V80.5431H70.911C70.8651 80.3138 70.4064 78.3874 69.9019 76.6903C69.4891 78.0204 67.4709 81.0477 64.4896 81.0477H64.1226V81.0935Z" fill="white"/>
<path d="M81.6897 41.4639L86.781 62.4253V41.4639H92.1934V80.5429H87.3773L81.6897 58.0679V80.5429H76.3232V41.4639H81.6897Z" fill="white"/>
<path d="M107.697 80.955H106.55C101.826 80.955 99.3029 78.3864 99.3029 73.5704V65.727H105.174V72.5613C105.174 74.3501 105.77 75.3133 107.1 75.3133C108.522 75.3133 109.027 74.3501 109.027 71.965V71.0935C109.027 68.2956 108.752 67.3324 106.596 64.5345L102.835 59.7184C100.312 56.4618 99.5781 53.9391 99.5781 50.0404V48.802C99.5781 43.619 102.193 41.188 106.871 41.188H107.972C112.834 41.188 114.76 43.3438 114.76 47.9764V54.3978H109.027V48.7561C109.027 47.4259 108.752 46.4627 107.33 46.4627C105.908 46.4627 105.587 47.3342 105.587 49.2148V49.9487C105.587 52.1503 105.999 53.3428 108.018 55.9573L111.779 60.8192C114.439 64.3052 115.311 66.2774 115.311 70.6807V71.9191C115.356 77.5608 112.88 80.955 107.697 80.955Z" fill="white"/>
<path d="M126.732 72.608V63.5263H132.557V72.5622C132.557 76.782 131.181 81.0018 125.447 81.0018H124.117C118.109 81.0018 116.824 76.6902 116.824 72.7456V48.8946C116.824 44.9041 118.567 41.0513 123.934 41.0513H125.31C131.823 41.0513 132.557 45.3628 132.557 49.1698V56.1416H126.732V49.2615C126.732 47.5644 126.227 46.693 124.714 46.693C123.246 46.693 122.879 47.5186 122.879 49.2615V72.4704C122.879 74.2134 123.475 75.1307 124.759 75.1307C126.227 75.2683 126.732 74.2134 126.732 72.608Z" fill="white"/>
<path d="M144.436 63.3885H140.4V80.5429H134.483V41.4639H140.4V57.1047H144.436V41.4639H150.353V80.5429H144.436V63.3885Z" fill="white"/>
<path d="M168.654 71.8283C168.654 77.2865 166.82 81.0018 161.086 81.0018H160.077C154.39 81.0018 152.417 77.2865 152.417 71.8283V50.0872C152.417 44.6748 154.481 41.0972 160.031 41.0972H161.04C166.82 41.0972 168.654 44.6748 168.654 50.0413V71.8283ZM162.6 49.7661C162.6 47.7021 161.912 46.7847 160.536 46.7847C159.022 46.7847 158.426 47.7938 158.426 49.7661V72.2411C158.426 73.9382 158.885 75.2225 160.582 75.2225C162.141 75.2225 162.6 73.8924 162.6 72.2411V49.7661Z" fill="white"/>
<path d="M186.772 71.8283C186.772 77.2865 184.937 81.0018 179.204 81.0018H178.195C172.507 81.0018 170.535 77.2865 170.535 71.8283V50.0872C170.535 44.6748 172.599 41.0972 178.149 41.0972H179.158C184.937 41.0972 186.772 44.6748 186.772 50.0413V71.8283ZM180.717 49.7661C180.717 47.7021 180.029 46.7847 178.653 46.7847C177.14 46.7847 176.544 47.7938 176.544 49.7661V72.2411C176.544 73.9382 177.002 75.2225 178.699 75.2225C180.259 75.2225 180.717 73.8924 180.717 72.2411V49.7661Z" fill="white"/>
<path d="M194.753 41.4639V74.4884H202V80.5429H188.836V41.4639H194.753Z" fill="white"/>
</svg>
