<svg width="32" height="32" viewBox="0 0 32 32" fill="none" xmlns="http://www.w3.org/2000/svg">
<g clip-path="url(#clip0_257_725)">
<rect width="32" height="32" fill="#FDC62E"/>
<path d="M29.5 11L31.2122 16.445L34.9909 12.1671L34.3404 17.8377L39.5325 15.4667L36.6317 20.3825L42.3393 20.3283L37.6899 23.6392L42.926 25.9111L37.332 27.0448L41.1913 31.25L35.6198 30.0103L37.4351 35.4217L32.8495 32.023L32.3068 37.705L29.5 32.735L26.6932 37.705L26.1505 32.023L21.5649 35.4217L23.3802 30.0103L17.8087 31.25L21.668 27.0448L16.074 25.9111L21.3101 23.6392L16.6607 20.3283L22.3683 20.3825L19.4675 15.4667L24.6596 17.8377L24.0091 12.1671L27.7878 16.445L29.5 11Z" fill="#8544E1"/>
<path d="M-3.08552 -5.10147C-1.91487 -6.53268 -0.473222 -7.71884 1.15711 -8.59222C2.78743 -9.46561 4.57452 -10.0091 6.41632 -10.1917C8.25812 -10.3743 10.1186 -10.1924 11.8914 -9.65644C13.6643 -9.12045 15.3149 -8.24086 16.749 -7.06788C18.183 -5.89491 19.3724 -4.45152 20.2493 -2.82013C21.1262 -1.18875 21.6734 0.598693 21.8597 2.44013C22.0459 4.28156 21.8676 6.14093 21.3348 7.91208C20.8021 9.68322 19.9254 11.3314 18.7547 12.7627L7.83459 3.83059L-3.08552 -5.10147Z" fill="#F75B5B"/>
<path fill-rule="evenodd" clip-rule="evenodd" d="M-1 26.3804C1.97153 26.3804 4.38043 23.9715 4.38043 21C4.38043 18.0285 1.97153 15.6196 -1 15.6196C-3.97153 15.6196 -6.38043 18.0285 -6.38043 21C-6.38043 23.9715 -3.97153 26.3804 -1 26.3804ZM-1 32C5.07513 32 10 27.0751 10 21C10 14.9249 5.07513 10 -1 10C-7.07513 10 -12 14.9249 -12 21C-12 27.0751 -7.07513 32 -1 32Z" fill="#278EFF"/>
</g>
<defs>
<clipPath id="clip0_257_725">
<rect width="32" height="32" fill="white"/>
</clipPath>
</defs>
</svg>
