<svg width="1180" height="278" viewBox="0 0 1180 278" fill="none" xmlns="http://www.w3.org/2000/svg">
<path d="M302.984 90.6133H316.607V125.086C316.607 126.779 316.575 128.65 316.51 130.701C316.477 132.752 316.412 134.77 316.314 136.756C316.249 138.709 316.184 140.418 316.119 141.883C316.054 143.348 315.989 144.324 315.924 144.812H316.217L349.176 90.6133H367.291V162H353.814V127.723C353.814 125.9 353.847 123.914 353.912 121.766C353.977 119.617 354.059 117.534 354.156 115.516C354.286 113.497 354.4 111.756 354.498 110.291C354.596 108.794 354.661 107.801 354.693 107.312H354.303L321.197 162H302.984V90.6133ZM399.029 107.41V128.406H419.83V107.41H434.723V162H419.83V139.49H399.029V162H384.137V107.41H399.029ZM495.514 118.592H477.643V162H462.75V118.592H444.83V107.41H495.514V118.592ZM528.229 106.385C533.274 106.385 537.62 107.361 541.266 109.314C544.911 111.235 547.727 114.035 549.713 117.713C551.699 121.391 552.691 125.883 552.691 131.189V138.416H517.486C517.649 142.615 518.902 145.919 521.246 148.328C523.622 150.704 526.91 151.893 531.109 151.893C534.592 151.893 537.783 151.535 540.68 150.818C543.577 150.102 546.555 149.028 549.615 147.596V159.119C546.913 160.454 544.081 161.43 541.119 162.049C538.189 162.667 534.625 162.977 530.426 162.977C524.957 162.977 520.107 161.967 515.875 159.949C511.676 157.931 508.372 154.855 505.963 150.721C503.587 146.587 502.398 141.378 502.398 135.096C502.398 128.715 503.473 123.41 505.621 119.178C507.802 114.913 510.829 111.723 514.703 109.607C518.577 107.459 523.085 106.385 528.229 106.385ZM528.326 116.98C525.429 116.98 523.02 117.908 521.1 119.764C519.212 121.619 518.121 124.533 517.828 128.504H538.727C538.694 126.29 538.287 124.321 537.506 122.596C536.757 120.87 535.618 119.503 534.088 118.494C532.59 117.485 530.67 116.98 528.326 116.98ZM595.172 106.385C601.324 106.385 606.288 108.777 610.064 113.562C613.873 118.348 615.777 125.363 615.777 134.607C615.777 140.792 614.882 146.001 613.092 150.232C611.301 154.432 608.827 157.605 605.67 159.754C602.512 161.902 598.883 162.977 594.781 162.977C592.145 162.977 589.882 162.651 587.994 162C586.106 161.316 584.495 160.454 583.16 159.412C581.826 158.338 580.67 157.199 579.693 155.994H578.912C579.173 157.296 579.368 158.631 579.498 159.998C579.628 161.365 579.693 162.7 579.693 164.002V186.023H564.801V107.41H576.91L579.01 114.49H579.693C580.67 113.025 581.858 111.674 583.258 110.438C584.658 109.201 586.334 108.224 588.287 107.508C590.273 106.759 592.568 106.385 595.172 106.385ZM590.387 118.299C587.783 118.299 585.715 118.836 584.186 119.91C582.656 120.984 581.533 122.596 580.816 124.744C580.133 126.893 579.758 129.611 579.693 132.898V134.51C579.693 138.025 580.019 141.004 580.67 143.445C581.354 145.887 582.477 147.742 584.039 149.012C585.634 150.281 587.815 150.916 590.582 150.916C592.861 150.916 594.732 150.281 596.197 149.012C597.662 147.742 598.753 145.887 599.469 143.445C600.217 140.971 600.592 137.96 600.592 134.412C600.592 129.074 599.762 125.053 598.102 122.352C596.441 119.65 593.87 118.299 590.387 118.299ZM667.975 86.0234V107.117C674.29 107.638 679.612 109.119 683.941 111.561C688.271 113.969 691.559 117.16 693.805 121.131C696.051 125.07 697.174 129.594 697.174 134.705C697.174 139.783 696.083 144.308 693.902 148.279C691.754 152.251 688.515 155.457 684.186 157.898C679.889 160.34 674.485 161.837 667.975 162.391V186.023H654.156V162.391C647.874 161.805 642.551 160.291 638.189 157.85C633.827 155.376 630.491 152.169 628.18 148.23C625.901 144.259 624.762 139.751 624.762 134.705C624.762 129.497 625.82 124.907 627.936 120.936C630.051 116.932 633.274 113.742 637.604 111.365C641.965 108.956 647.483 107.54 654.156 107.117V86.0234H667.975ZM654.156 118.299C651.259 118.689 648.753 119.633 646.637 121.131C644.553 122.628 642.942 124.549 641.803 126.893C640.663 129.204 640.094 131.808 640.094 134.705C640.094 137.667 640.631 140.32 641.705 142.664C642.812 144.975 644.407 146.863 646.49 148.328C648.606 149.793 651.161 150.721 654.156 151.111V118.299ZM667.975 118.494V151.111C670.937 150.721 673.443 149.793 675.494 148.328C677.577 146.863 679.156 144.975 680.23 142.664C681.337 140.32 681.891 137.667 681.891 134.705C681.891 130.343 680.637 126.697 678.131 123.768C675.657 120.805 672.271 119.048 667.975 118.494ZM732.037 106.385C737.083 106.385 741.428 107.361 745.074 109.314C748.72 111.235 751.536 114.035 753.521 117.713C755.507 121.391 756.5 125.883 756.5 131.189V138.416H721.295C721.458 142.615 722.711 145.919 725.055 148.328C727.431 150.704 730.719 151.893 734.918 151.893C738.401 151.893 741.591 151.535 744.488 150.818C747.385 150.102 750.364 149.028 753.424 147.596V159.119C750.722 160.454 747.89 161.43 744.928 162.049C741.998 162.667 738.434 162.977 734.234 162.977C728.766 162.977 723.915 161.967 719.684 159.949C715.484 157.931 712.18 154.855 709.771 150.721C707.395 146.587 706.207 141.378 706.207 135.096C706.207 128.715 707.281 123.41 709.43 119.178C711.611 114.913 714.638 111.723 718.512 109.607C722.385 107.459 726.894 106.385 732.037 106.385ZM732.135 116.98C729.238 116.98 726.829 117.908 724.908 119.764C723.02 121.619 721.93 124.533 721.637 128.504H742.535C742.503 126.29 742.096 124.321 741.314 122.596C740.566 120.87 739.426 119.503 737.896 118.494C736.399 117.485 734.479 116.98 732.135 116.98ZM783.014 107.41V128.992C783.014 130.099 782.965 131.499 782.867 133.191C782.802 134.852 782.704 136.544 782.574 138.27C782.444 139.995 782.314 141.541 782.184 142.908C782.053 144.275 781.956 145.203 781.891 145.691L807.086 107.41H825.006V162H810.602V140.223C810.602 138.432 810.667 136.463 810.797 134.314C810.927 132.133 811.074 130.083 811.236 128.162C811.399 126.242 811.513 124.793 811.578 123.816L786.48 162H768.609V107.41H783.014ZM820.904 83.9238C820.546 87.3743 819.57 90.418 817.975 93.0547C816.38 95.6914 813.889 97.7422 810.504 99.207C807.118 100.672 802.561 101.404 796.832 101.404C790.94 101.404 786.35 100.704 783.062 99.3047C779.775 97.8724 777.431 95.8542 776.031 93.25C774.632 90.6133 773.785 87.5046 773.492 83.9238H786.822C787.115 87.6022 788.043 90.0436 789.605 91.248C791.168 92.4199 793.674 93.0059 797.125 93.0059C799.99 93.0059 802.333 92.3548 804.156 91.0527C805.979 89.7507 807.07 87.3743 807.428 83.9238H820.904ZM862.848 162.977C857.444 162.977 852.838 162 849.029 160.047C845.221 158.061 842.324 155.001 840.338 150.867C838.352 146.733 837.359 141.443 837.359 134.998C837.359 128.325 838.482 122.889 840.729 118.689C843.007 114.458 846.148 111.349 850.152 109.363C854.189 107.378 858.86 106.385 864.166 106.385C867.942 106.385 871.197 106.759 873.932 107.508C876.699 108.224 879.107 109.087 881.158 110.096L876.764 121.619C874.42 120.675 872.239 119.91 870.221 119.324C868.202 118.706 866.184 118.396 864.166 118.396C861.562 118.396 859.397 119.015 857.672 120.252C855.947 121.456 854.661 123.279 853.814 125.721C852.968 128.162 852.545 131.222 852.545 134.9C852.545 138.514 853.001 141.508 853.912 143.885C854.824 146.261 856.142 148.035 857.867 149.207C859.592 150.346 861.692 150.916 864.166 150.916C867.258 150.916 870.009 150.509 872.418 149.695C874.827 148.849 877.171 147.677 879.449 146.18V158.924C877.171 160.356 874.778 161.382 872.271 162C869.798 162.651 866.656 162.977 862.848 162.977Z" fill="white"/>
<line x1="30" y1="186.5" x2="1150" y2="186.5" stroke="white"/>
<line x1="30" y1="90.5" x2="1150" y2="90.5" stroke="white"/>
<path d="M30 107L1149 107M30 162L1149 162" stroke="white" stroke-dasharray="5 5"/>
</svg>
