<svg width="565" height="367" viewBox="0 0 565 367" fill="none" xmlns="http://www.w3.org/2000/svg">
<path d="M46.2656 90V67.1562H47.875V88.5312H58.75V90H46.2656ZM63.8438 73.0156V90H62.2656V73.0156H63.8438ZM63.0781 66.7344C63.474 66.7344 63.7656 66.8542 63.9531 67.0938C64.1406 67.3229 64.2344 67.6354 64.2344 68.0312C64.2344 68.4271 64.1406 68.7396 63.9531 68.9688C63.7656 69.1979 63.474 69.3125 63.0781 69.3125C62.7031 69.3125 62.4219 69.1979 62.2344 68.9688C62.0469 68.7396 61.9531 68.4271 61.9531 68.0312C61.9531 67.6354 62.0469 67.3229 62.2344 67.0938C62.4219 66.8542 62.7031 66.7344 63.0781 66.7344ZM74.0156 97.6875C71.8802 97.6875 70.2188 97.276 69.0312 96.4531C67.8542 95.6302 67.2656 94.4792 67.2656 93C67.2656 91.8542 67.625 90.8646 68.3438 90.0312C69.0625 89.2083 70.0365 88.7135 71.2656 88.5469C70.776 88.3177 70.375 88.0052 70.0625 87.6094C69.7604 87.2135 69.6094 86.7552 69.6094 86.2344C69.6094 85.651 69.7917 85.1094 70.1562 84.6094C70.5208 84.099 71.0677 83.6302 71.7969 83.2031C70.8177 82.849 70.0469 82.25 69.4844 81.4062C68.9219 80.5521 68.6406 79.526 68.6406 78.3281C68.6406 77.1823 68.8854 76.1875 69.375 75.3438C69.8646 74.5 70.5573 73.849 71.4531 73.3906C72.3594 72.9219 73.4271 72.6875 74.6562 72.6875C75.0312 72.6875 75.3698 72.6979 75.6719 72.7188C75.9844 72.7396 76.2708 72.776 76.5312 72.8281C76.7917 72.8698 77.026 72.9271 77.2344 73H82.7188V74.125L79.2188 74.3594C79.6771 74.9115 80.0208 75.5104 80.25 76.1562C80.4792 76.7917 80.5938 77.4635 80.5938 78.1719C80.5938 79.8594 80.0625 81.1979 79 82.1875C77.9375 83.1771 76.4583 83.6719 74.5625 83.6719C74.0417 83.6719 73.5312 83.625 73.0312 83.5312C72.3958 83.9062 71.9115 84.2865 71.5781 84.6719C71.2448 85.0469 71.0781 85.5156 71.0781 86.0781C71.0781 86.4323 71.1823 86.724 71.3906 86.9531C71.599 87.1719 71.901 87.3438 72.2969 87.4688C72.6927 87.5833 73.1771 87.6406 73.75 87.6406H76.7344C78.5781 87.6406 79.9896 88.0156 80.9688 88.7656C81.9479 89.5156 82.4375 90.6198 82.4375 92.0781C82.4375 93.8594 81.7031 95.2396 80.2344 96.2188C78.776 97.1979 76.7031 97.6875 74.0156 97.6875ZM74.125 96.3594C75.6146 96.3594 76.8542 96.1979 77.8438 95.875C78.8438 95.5521 79.5938 95.0729 80.0938 94.4375C80.5938 93.8125 80.8438 93.0365 80.8438 92.1094C80.8438 91.349 80.6615 90.7604 80.2969 90.3438C79.9323 89.9271 79.4167 89.6406 78.75 89.4844C78.0833 89.3177 77.2969 89.2344 76.3906 89.2344H73.5469C72.6406 89.2344 71.8333 89.3594 71.125 89.6094C70.4167 89.849 69.8646 90.2344 69.4688 90.7656C69.0833 91.2969 68.8906 92.0052 68.8906 92.8906C68.8906 94.026 69.3333 94.8854 70.2188 95.4688C71.1146 96.0625 72.4167 96.3594 74.125 96.3594ZM74.625 82.4062C76.0312 82.4062 77.1094 82.0521 77.8594 81.3438C78.6094 80.6354 78.9844 79.6094 78.9844 78.2656C78.9844 76.8281 78.599 75.75 77.8281 75.0312C77.0573 74.3125 75.9792 73.9531 74.5938 73.9531C73.25 73.9531 72.1927 74.3385 71.4219 75.1094C70.6615 75.8698 70.2812 76.9427 70.2812 78.3281C70.2812 79.6198 70.6458 80.625 71.375 81.3438C72.1042 82.0521 73.1875 82.4062 74.625 82.4062ZM87.7188 65.6875V73.625C87.7188 74.0833 87.7083 74.5104 87.6875 74.9062C87.6771 75.3021 87.6562 75.7031 87.625 76.1094H87.7344C88.0156 75.4635 88.4167 74.8854 88.9375 74.375C89.4688 73.8646 90.1198 73.4583 90.8906 73.1562C91.6719 72.8542 92.5729 72.7031 93.5938 72.7031C94.8854 72.7031 95.9688 72.9271 96.8438 73.375C97.7292 73.8125 98.401 74.4844 98.8594 75.3906C99.3177 76.2969 99.5469 77.4635 99.5469 78.8906V90H97.9844V78.9844C97.9844 77.2969 97.599 76.0573 96.8281 75.2656C96.0573 74.474 94.9375 74.0781 93.4688 74.0781C92.2188 74.0781 91.1667 74.3229 90.3125 74.8125C89.4583 75.2917 88.8125 76.0208 88.375 77C87.9375 77.9688 87.7188 79.1823 87.7188 80.6406V90H86.1406V65.6875H87.7188ZM109.641 88.9531C110.13 88.9531 110.583 88.9167 111 88.8438C111.427 88.7708 111.802 88.6771 112.125 88.5625V89.875C111.792 89.9896 111.401 90.0885 110.953 90.1719C110.505 90.2656 110.01 90.3125 109.469 90.3125C108.51 90.3125 107.714 90.1354 107.078 89.7812C106.443 89.4167 105.964 88.8698 105.641 88.1406C105.318 87.401 105.156 86.4635 105.156 85.3281V74.3281H102.625V73.3906L105.141 72.9062L105.688 68.9062H106.734V73.0156H112.031V74.3281H106.734V85.2344C106.734 86.4531 106.958 87.3802 107.406 88.0156C107.865 88.6406 108.609 88.9531 109.641 88.9531Z" fill="white"/>
<path d="M162.453 67.1562C164.328 67.1562 165.875 67.3906 167.094 67.8594C168.323 68.3177 169.24 69.0208 169.844 69.9688C170.448 70.9167 170.75 72.125 170.75 73.5938C170.75 74.8021 170.531 75.8125 170.094 76.625C169.656 77.4271 169.083 78.0781 168.375 78.5781C167.667 79.0781 166.911 79.4635 166.109 79.7344L172.375 90H169.281L163.688 80.4688H158.938V90H156.281V67.1562H162.453ZM162.297 69.4531H158.938V78.2188H162.562C164.427 78.2188 165.797 77.8385 166.672 77.0781C167.557 76.3177 168 75.1979 168 73.7188C168 72.1667 167.531 71.0677 166.594 70.4219C165.667 69.776 164.234 69.4531 162.297 69.4531ZM182.234 72.5625C183.693 72.5625 184.943 72.8854 185.984 73.5312C187.026 74.1771 187.823 75.0833 188.375 76.25C188.927 77.4062 189.203 78.7604 189.203 80.3125V81.9219H177.375C177.406 83.9323 177.906 85.4635 178.875 86.5156C179.844 87.5677 181.208 88.0938 182.969 88.0938C184.052 88.0938 185.01 87.9948 185.844 87.7969C186.677 87.599 187.542 87.3073 188.438 86.9219V89.2031C187.573 89.5885 186.714 89.8698 185.859 90.0469C185.016 90.224 184.016 90.3125 182.859 90.3125C181.214 90.3125 179.776 89.9792 178.547 89.3125C177.328 88.6354 176.38 87.6458 175.703 86.3438C175.026 85.0417 174.688 83.4479 174.688 81.5625C174.688 79.7188 174.995 78.125 175.609 76.7812C176.234 75.4271 177.109 74.3854 178.234 73.6562C179.37 72.9271 180.703 72.5625 182.234 72.5625ZM182.203 74.6875C180.818 74.6875 179.714 75.1406 178.891 76.0469C178.068 76.9531 177.578 78.2188 177.422 79.8438H186.484C186.474 78.8229 186.312 77.9271 186 77.1562C185.698 76.375 185.234 75.7708 184.609 75.3438C183.984 74.9062 183.182 74.6875 182.203 74.6875ZM198.391 97.6875C196.141 97.6875 194.406 97.2656 193.188 96.4219C191.969 95.5885 191.359 94.4167 191.359 92.9062C191.359 91.8333 191.698 90.9167 192.375 90.1562C193.062 89.3958 194.01 88.8906 195.219 88.6406C194.771 88.4323 194.385 88.1198 194.062 87.7031C193.75 87.2865 193.594 86.8073 193.594 86.2656C193.594 85.6406 193.766 85.0938 194.109 84.625C194.464 84.1458 195 83.6875 195.719 83.25C194.823 82.8854 194.094 82.2708 193.531 81.4062C192.979 80.5312 192.703 79.5156 192.703 78.3594C192.703 77.1302 192.958 76.0833 193.469 75.2188C193.979 74.3438 194.719 73.6771 195.688 73.2188C196.656 72.7604 197.828 72.5312 199.203 72.5312C199.505 72.5312 199.807 72.5469 200.109 72.5781C200.422 72.599 200.719 72.6354 201 72.6875C201.281 72.7292 201.526 72.7812 201.734 72.8438H207.609V74.5156L204.453 74.9062C204.766 75.3125 205.026 75.8021 205.234 76.375C205.443 76.9479 205.547 77.5833 205.547 78.2812C205.547 79.9896 204.969 81.349 203.812 82.3594C202.656 83.3594 201.068 83.8594 199.047 83.8594C198.568 83.8594 198.078 83.8177 197.578 83.7344C197.068 84.0156 196.677 84.3281 196.406 84.6719C196.146 85.0156 196.016 85.4115 196.016 85.8594C196.016 86.1927 196.115 86.4583 196.312 86.6562C196.521 86.8542 196.818 87 197.203 87.0938C197.589 87.1771 198.052 87.2188 198.594 87.2188H201.609C203.474 87.2188 204.901 87.6094 205.891 88.3906C206.891 89.1719 207.391 90.3125 207.391 91.8125C207.391 93.7083 206.62 95.1615 205.078 96.1719C203.536 97.1823 201.307 97.6875 198.391 97.6875ZM198.469 95.6562C199.885 95.6562 201.057 95.5104 201.984 95.2188C202.922 94.9375 203.62 94.526 204.078 93.9844C204.547 93.4531 204.781 92.8177 204.781 92.0781C204.781 91.3906 204.625 90.8698 204.312 90.5156C204 90.1719 203.542 89.9427 202.938 89.8281C202.333 89.7031 201.594 89.6406 200.719 89.6406H197.75C196.979 89.6406 196.307 89.7604 195.734 90C195.161 90.2396 194.719 90.5938 194.406 91.0625C194.104 91.5312 193.953 92.1146 193.953 92.8125C193.953 93.7396 194.344 94.4427 195.125 94.9219C195.906 95.4115 197.021 95.6562 198.469 95.6562ZM199.141 81.9688C200.38 81.9688 201.312 81.6562 201.938 81.0312C202.562 80.4062 202.875 79.4948 202.875 78.2969C202.875 77.0156 202.557 76.0573 201.922 75.4219C201.286 74.776 200.349 74.4531 199.109 74.4531C197.922 74.4531 197.005 74.7865 196.359 75.4531C195.724 76.1094 195.406 77.0729 195.406 78.3438C195.406 79.5104 195.729 80.4062 196.375 81.0312C197.021 81.6562 197.943 81.9688 199.141 81.9688ZM225.125 72.875V90H223L222.625 87.5938H222.484C222.13 88.1875 221.672 88.6875 221.109 89.0938C220.547 89.5 219.911 89.8021 219.203 90C218.505 90.2083 217.76 90.3125 216.969 90.3125C215.615 90.3125 214.479 90.0938 213.562 89.6562C212.646 89.2188 211.953 88.5417 211.484 87.625C211.026 86.7083 210.797 85.5312 210.797 84.0938V72.875H213.422V83.9062C213.422 85.3333 213.745 86.401 214.391 87.1094C215.036 87.8073 216.021 88.1562 217.344 88.1562C218.615 88.1562 219.625 87.9167 220.375 87.4375C221.135 86.9583 221.682 86.2552 222.016 85.3281C222.349 84.3906 222.516 83.2448 222.516 81.8906V72.875H225.125ZM233.219 90H230.609V65.6875H233.219V90ZM245.109 72.5938C247.151 72.5938 248.667 73.0521 249.656 73.9688C250.646 74.8854 251.141 76.349 251.141 78.3594V90H249.25L248.75 87.4688H248.625C248.146 88.0938 247.646 88.6198 247.125 89.0469C246.604 89.4635 246 89.7812 245.312 90C244.635 90.2083 243.802 90.3125 242.812 90.3125C241.771 90.3125 240.844 90.1302 240.031 89.7656C239.229 89.401 238.594 88.849 238.125 88.1094C237.667 87.3698 237.438 86.4323 237.438 85.2969C237.438 83.5885 238.115 82.276 239.469 81.3594C240.823 80.4427 242.885 79.9427 245.656 79.8594L248.609 79.7344V78.6875C248.609 77.2083 248.292 76.1719 247.656 75.5781C247.021 74.9844 246.125 74.6875 244.969 74.6875C244.073 74.6875 243.219 74.8177 242.406 75.0781C241.594 75.3385 240.823 75.6458 240.094 76L239.297 74.0312C240.068 73.6354 240.953 73.2969 241.953 73.0156C242.953 72.7344 244.005 72.5938 245.109 72.5938ZM248.578 81.5625L245.969 81.6719C243.833 81.7552 242.328 82.1042 241.453 82.7188C240.578 83.3333 240.141 84.2031 240.141 85.3281C240.141 86.3073 240.438 87.0312 241.031 87.5C241.625 87.9688 242.411 88.2031 243.391 88.2031C244.911 88.2031 246.156 87.7812 247.125 86.9375C248.094 86.0938 248.578 84.8281 248.578 83.1406V81.5625ZM264.266 72.5625C264.609 72.5625 264.969 72.5833 265.344 72.625C265.719 72.6562 266.052 72.7031 266.344 72.7656L266.016 75.1719C265.734 75.099 265.422 75.0417 265.078 75C264.734 74.9583 264.411 74.9375 264.109 74.9375C263.422 74.9375 262.771 75.0781 262.156 75.3594C261.552 75.6302 261.021 76.026 260.562 76.5469C260.104 77.0573 259.745 77.6771 259.484 78.4062C259.224 79.125 259.094 79.9271 259.094 80.8125V90H256.484V72.875H258.641L258.922 76.0312H259.031C259.385 75.3958 259.812 74.8177 260.312 74.2969C260.812 73.7656 261.391 73.3438 262.047 73.0312C262.714 72.7188 263.453 72.5625 264.266 72.5625Z" fill="white"/>
<path d="M323.188 83.7812C323.188 85.1354 322.854 86.3021 322.188 87.2812C321.531 88.2604 320.583 89.0104 319.344 89.5312C318.115 90.0521 316.646 90.3125 314.938 90.3125C314.104 90.3125 313.307 90.2656 312.547 90.1719C311.786 90.0781 311.068 89.9427 310.391 89.7656C309.724 89.5781 309.115 89.3542 308.562 89.0938V85.5625C309.49 85.9688 310.526 86.3385 311.672 86.6719C312.818 86.9948 313.984 87.1562 315.172 87.1562C316.141 87.1562 316.943 87.0312 317.578 86.7812C318.224 86.5208 318.703 86.1562 319.016 85.6875C319.328 85.2083 319.484 84.651 319.484 84.0156C319.484 83.3385 319.302 82.7656 318.938 82.2969C318.573 81.8281 318.021 81.401 317.281 81.0156C316.552 80.6198 315.635 80.1979 314.531 79.75C313.781 79.4479 313.062 79.1042 312.375 78.7188C311.698 78.3333 311.094 77.8802 310.562 77.3594C310.031 76.8385 309.609 76.224 309.297 75.5156C308.995 74.7969 308.844 73.9531 308.844 72.9844C308.844 71.6927 309.151 70.5885 309.766 69.6719C310.391 68.7552 311.266 68.0521 312.391 67.5625C313.526 67.0729 314.849 66.8281 316.359 66.8281C317.557 66.8281 318.682 66.9531 319.734 67.2031C320.797 67.4531 321.839 67.8073 322.859 68.2656L321.672 71.2812C320.734 70.8958 319.823 70.5885 318.938 70.3594C318.062 70.1302 317.167 70.0156 316.25 70.0156C315.458 70.0156 314.786 70.1354 314.234 70.375C313.682 70.6146 313.26 70.9531 312.969 71.3906C312.688 71.8177 312.547 72.3281 312.547 72.9219C312.547 73.5885 312.708 74.151 313.031 74.6094C313.365 75.0573 313.875 75.4688 314.562 75.8438C315.26 76.2188 316.156 76.6354 317.25 77.0938C318.51 77.6146 319.578 78.1615 320.453 78.7344C321.339 79.3073 322.016 79.9948 322.484 80.7969C322.953 81.5885 323.188 82.5833 323.188 83.7812ZM334.109 72.375C335.651 72.375 336.974 72.6927 338.078 73.3281C339.182 73.9635 340.031 74.8646 340.625 76.0312C341.219 77.1979 341.516 78.5938 341.516 80.2188V82.1875H329.969C330.01 83.8646 330.458 85.1562 331.312 86.0625C332.177 86.9688 333.385 87.4219 334.938 87.4219C336.042 87.4219 337.031 87.3177 337.906 87.1094C338.792 86.8906 339.703 86.5729 340.641 86.1562V89.1406C339.776 89.5469 338.896 89.8438 338 90.0312C337.104 90.2188 336.031 90.3125 334.781 90.3125C333.083 90.3125 331.589 89.9844 330.297 89.3281C329.016 88.6615 328.01 87.6719 327.281 86.3594C326.562 85.0469 326.203 83.4167 326.203 81.4688C326.203 79.5312 326.531 77.8854 327.188 76.5312C327.844 75.1771 328.766 74.1458 329.953 73.4375C331.141 72.7292 332.526 72.375 334.109 72.375ZM334.109 75.1406C332.953 75.1406 332.016 75.5156 331.297 76.2656C330.589 77.0156 330.172 78.1146 330.047 79.5625H337.922C337.911 78.6979 337.766 77.9323 337.484 77.2656C337.214 76.599 336.797 76.0781 336.234 75.7031C335.682 75.3281 334.974 75.1406 334.109 75.1406ZM365.203 72.375C367.141 72.375 368.599 72.875 369.578 73.875C370.568 74.875 371.062 76.4792 371.062 78.6875V90H367.391V79.3438C367.391 78.0312 367.135 77.0417 366.625 76.375C366.115 75.7083 365.339 75.375 364.297 75.375C362.839 75.375 361.786 75.8438 361.141 76.7812C360.505 77.7083 360.188 79.0573 360.188 80.8281V90H356.516V79.3438C356.516 78.4688 356.401 77.7396 356.172 77.1562C355.953 76.5625 355.615 76.1198 355.156 75.8281C354.698 75.526 354.12 75.375 353.422 75.375C352.411 75.375 351.604 75.6042 351 76.0625C350.406 76.5208 349.979 77.1979 349.719 78.0938C349.458 78.9792 349.328 80.0677 349.328 81.3594V90H345.656V72.7031H348.516L349.031 75.0312H349.234C349.589 74.4271 350.026 73.9323 350.547 73.5469C351.078 73.151 351.667 72.8594 352.312 72.6719C352.958 72.474 353.63 72.375 354.328 72.375C355.62 72.375 356.708 72.6042 357.594 73.0625C358.479 73.5104 359.141 74.1979 359.578 75.125H359.859C360.401 74.1875 361.156 73.4948 362.125 73.0469C363.094 72.599 364.12 72.375 365.203 72.375ZM379.859 72.7031V90H376.188V72.7031H379.859ZM378.047 66.0781C378.609 66.0781 379.094 66.2292 379.5 66.5312C379.917 66.8333 380.125 67.3542 380.125 68.0938C380.125 68.8229 379.917 69.3438 379.5 69.6562C379.094 69.9583 378.609 70.1094 378.047 70.1094C377.464 70.1094 376.969 69.9583 376.562 69.6562C376.167 69.3438 375.969 68.8229 375.969 68.0938C375.969 67.3542 376.167 66.8333 376.562 66.5312C376.969 66.2292 377.464 66.0781 378.047 66.0781ZM385.5 67.1562H392.297C395.245 67.1562 397.469 67.5833 398.969 68.4375C400.469 69.2917 401.219 70.7656 401.219 72.8594C401.219 73.7344 401.062 74.526 400.75 75.2344C400.448 75.9323 400.005 76.5104 399.422 76.9688C398.839 77.4167 398.12 77.7188 397.266 77.875V78.0312C398.151 78.1875 398.938 78.4635 399.625 78.8594C400.323 79.2552 400.87 79.8229 401.266 80.5625C401.672 81.3021 401.875 82.2604 401.875 83.4375C401.875 84.8333 401.542 86.0208 400.875 87C400.219 87.9792 399.276 88.724 398.047 89.2344C396.828 89.7448 395.38 90 393.703 90H385.5V67.1562ZM389.25 76.5781H392.844C394.542 76.5781 395.719 76.3021 396.375 75.75C397.031 75.1979 397.359 74.3906 397.359 73.3281C397.359 72.2448 396.969 71.4635 396.188 70.9844C395.417 70.5052 394.188 70.2656 392.5 70.2656H389.25V76.5781ZM389.25 79.6094V86.8594H393.203C394.953 86.8594 396.182 86.5208 396.891 85.8438C397.599 85.1667 397.953 84.25 397.953 83.0938C397.953 82.3854 397.792 81.7708 397.469 81.25C397.156 80.7292 396.641 80.3281 395.922 80.0469C395.203 79.7552 394.234 79.6094 393.016 79.6094H389.25ZM421.531 81.3125C421.531 82.75 421.344 84.026 420.969 85.1406C420.594 86.2552 420.047 87.1979 419.328 87.9688C418.609 88.7292 417.745 89.3125 416.734 89.7188C415.724 90.1146 414.583 90.3125 413.312 90.3125C412.125 90.3125 411.036 90.1146 410.047 89.7188C409.057 89.3125 408.198 88.7292 407.469 87.9688C406.75 87.1979 406.193 86.2552 405.797 85.1406C405.401 84.026 405.203 82.75 405.203 81.3125C405.203 79.4062 405.531 77.7917 406.188 76.4688C406.854 75.1354 407.802 74.1198 409.031 73.4219C410.26 72.724 411.724 72.375 413.422 72.375C415.016 72.375 416.422 72.724 417.641 73.4219C418.859 74.1198 419.812 75.1354 420.5 76.4688C421.188 77.8021 421.531 79.4167 421.531 81.3125ZM408.984 81.3125C408.984 82.5729 409.135 83.651 409.438 84.5469C409.75 85.4427 410.229 86.1302 410.875 86.6094C411.521 87.0781 412.354 87.3125 413.375 87.3125C414.396 87.3125 415.229 87.0781 415.875 86.6094C416.521 86.1302 416.995 85.4427 417.297 84.5469C417.599 83.651 417.75 82.5729 417.75 81.3125C417.75 80.0521 417.599 78.9844 417.297 78.1094C416.995 77.224 416.521 76.5521 415.875 76.0938C415.229 75.625 414.391 75.3906 413.359 75.3906C411.839 75.3906 410.729 75.901 410.031 76.9219C409.333 77.9427 408.984 79.4062 408.984 81.3125ZM429.438 90H425.75V65.6875H429.438V90ZM440.5 90.3125C438.438 90.3125 436.781 89.5625 435.531 88.0625C434.292 86.5521 433.672 84.3281 433.672 81.3906C433.672 78.4219 434.302 76.1771 435.562 74.6562C436.833 73.1354 438.505 72.375 440.578 72.375C441.453 72.375 442.219 72.4948 442.875 72.7344C443.531 72.9635 444.094 73.276 444.562 73.6719C445.042 74.0677 445.448 74.5104 445.781 75H445.953C445.901 74.6771 445.839 74.2135 445.766 73.6094C445.703 72.9948 445.672 72.4271 445.672 71.9062V65.6875H449.359V90H446.484L445.828 87.6406H445.672C445.359 88.1406 444.964 88.5938 444.484 89C444.016 89.3958 443.453 89.7135 442.797 89.9531C442.151 90.1927 441.385 90.3125 440.5 90.3125ZM441.531 87.3281C443.104 87.3281 444.214 86.875 444.859 85.9688C445.505 85.0625 445.839 83.7031 445.859 81.8906V81.4062C445.859 79.4688 445.547 77.9844 444.922 76.9531C444.297 75.9115 443.156 75.3906 441.5 75.3906C440.177 75.3906 439.167 75.9271 438.469 77C437.781 78.0625 437.438 79.5469 437.438 81.4531C437.438 83.3594 437.781 84.8177 438.469 85.8281C439.167 86.8281 440.188 87.3281 441.531 87.3281Z" fill="white"/>
<path d="M46.2031 139.156H53.3125C56.3542 139.156 58.6562 139.583 60.2188 140.438C61.7812 141.292 62.5625 142.792 62.5625 144.938C62.5625 145.802 62.4219 146.583 62.1406 147.281C61.8698 147.979 61.474 148.552 60.9531 149C60.4323 149.448 59.7969 149.74 59.0469 149.875V150.031C59.8073 150.188 60.4948 150.458 61.1094 150.844C61.724 151.219 62.2135 151.771 62.5781 152.5C62.9531 153.219 63.1406 154.177 63.1406 155.375C63.1406 156.76 62.8021 157.948 62.125 158.938C61.4479 159.927 60.4792 160.688 59.2188 161.219C57.9688 161.74 56.4792 162 54.75 162H46.2031V139.156ZM51.0469 148.203H53.8594C55.2656 148.203 56.2396 147.984 56.7812 147.547C57.3229 147.099 57.5938 146.443 57.5938 145.578C57.5938 144.703 57.2708 144.078 56.625 143.703C55.9896 143.318 54.9792 143.125 53.5938 143.125H51.0469V148.203ZM51.0469 152.047V158H54.2031C55.6615 158 56.6771 157.719 57.25 157.156C57.8229 156.594 58.1094 155.839 58.1094 154.891C58.1094 154.328 57.9844 153.833 57.7344 153.406C57.4844 152.979 57.0625 152.646 56.4688 152.406C55.8854 152.167 55.0781 152.047 54.0469 152.047H51.0469ZM83.2031 153.234C83.2031 154.693 83.0052 155.984 82.6094 157.109C82.224 158.234 81.6562 159.188 80.9062 159.969C80.1667 160.74 79.2708 161.323 78.2188 161.719C77.1771 162.115 76 162.312 74.6875 162.312C73.4583 162.312 72.3281 162.115 71.2969 161.719C70.276 161.323 69.3854 160.74 68.625 159.969C67.875 159.188 67.2917 158.234 66.875 157.109C66.4688 155.984 66.2656 154.693 66.2656 153.234C66.2656 151.297 66.6094 149.656 67.2969 148.312C67.9844 146.969 68.9635 145.948 70.2344 145.25C71.5052 144.552 73.0208 144.203 74.7812 144.203C76.4167 144.203 77.8646 144.552 79.125 145.25C80.3958 145.948 81.3906 146.969 82.1094 148.312C82.8385 149.656 83.2031 151.297 83.2031 153.234ZM71.125 153.234C71.125 154.38 71.25 155.344 71.5 156.125C71.75 156.906 72.1406 157.495 72.6719 157.891C73.2031 158.286 73.8958 158.484 74.75 158.484C75.5938 158.484 76.276 158.286 76.7969 157.891C77.3281 157.495 77.7135 156.906 77.9531 156.125C78.2031 155.344 78.3281 154.38 78.3281 153.234C78.3281 152.078 78.2031 151.12 77.9531 150.359C77.7135 149.589 77.3281 149.01 76.7969 148.625C76.2656 148.24 75.5729 148.047 74.7188 148.047C73.4583 148.047 72.5417 148.479 71.9688 149.344C71.4062 150.208 71.125 151.505 71.125 153.234ZM91.9062 162H87.1406V137.688H91.9062V162ZM102.453 162.312C100.505 162.312 98.9167 161.552 97.6875 160.031C96.4688 158.5 95.8594 156.255 95.8594 153.297C95.8594 150.307 96.4792 148.047 97.7188 146.516C98.9583 144.974 100.578 144.203 102.578 144.203C103.411 144.203 104.146 144.318 104.781 144.547C105.417 144.776 105.964 145.083 106.422 145.469C106.891 145.854 107.286 146.286 107.609 146.766H107.766C107.703 146.432 107.625 145.943 107.531 145.297C107.448 144.641 107.406 143.969 107.406 143.281V137.688H112.188V162H108.531L107.609 159.734H107.406C107.104 160.214 106.724 160.651 106.266 161.047C105.818 161.432 105.281 161.74 104.656 161.969C104.031 162.198 103.297 162.312 102.453 162.312ZM104.125 158.516C105.427 158.516 106.344 158.13 106.875 157.359C107.417 156.578 107.703 155.406 107.734 153.844V153.328C107.734 151.63 107.474 150.333 106.953 149.438C106.432 148.531 105.464 148.078 104.047 148.078C102.995 148.078 102.172 148.531 101.578 149.438C100.984 150.344 100.688 151.651 100.688 153.359C100.688 155.068 100.984 156.354 101.578 157.219C102.182 158.083 103.031 158.516 104.125 158.516Z" fill="white"/>
<path d="M171.375 162H157.812V139.156H171.375V144.109H163.984V147.703H170.828V152.656H163.984V156.969H171.375V162ZM178.766 152.969L173.359 144.297H180.297L182.984 149.266L185.734 144.297H192.688L187.141 152.969L192.906 162H185.969L182.984 156.625L180.016 162H173.062L178.766 152.969ZM203.844 157.484C204.396 157.484 204.901 157.427 205.359 157.312C205.818 157.198 206.297 157.052 206.797 156.875V161.328C206.13 161.62 205.422 161.854 204.672 162.031C203.932 162.219 202.984 162.312 201.828 162.312C200.682 162.312 199.672 162.135 198.797 161.781C197.922 161.417 197.24 160.792 196.75 159.906C196.271 159.01 196.031 157.766 196.031 156.172V148.875H193.891V146.391L196.609 144.469L198.188 140.75H202.188V144.297H206.531V148.875H202.188V155.766C202.188 156.339 202.333 156.771 202.625 157.062C202.917 157.344 203.323 157.484 203.844 157.484ZM220.578 143.984C220.911 143.984 221.26 144.01 221.625 144.062C221.99 144.104 222.26 144.141 222.438 144.172L221.891 149.938C221.693 149.885 221.438 149.844 221.125 149.812C220.812 149.771 220.375 149.75 219.812 149.75C219.427 149.75 219.016 149.786 218.578 149.859C218.141 149.932 217.724 150.089 217.328 150.328C216.943 150.557 216.625 150.911 216.375 151.391C216.125 151.859 216 152.495 216 153.297V162H209.891V144.297H214.438L215.391 147.125H215.688C216.01 146.542 216.422 146.016 216.922 145.547C217.432 145.068 218 144.688 218.625 144.406C219.26 144.125 219.911 143.984 220.578 143.984ZM233.562 143.984C235.802 143.984 237.552 144.542 238.812 145.656C240.073 146.76 240.703 148.339 240.703 150.391V162H236.469L235.297 159.656H235.172C234.672 160.281 234.156 160.792 233.625 161.188C233.104 161.573 232.505 161.854 231.828 162.031C231.151 162.219 230.323 162.312 229.344 162.312C228.323 162.312 227.406 162.104 226.594 161.688C225.781 161.271 225.141 160.641 224.672 159.797C224.203 158.953 223.969 157.885 223.969 156.594C223.969 154.698 224.625 153.292 225.938 152.375C227.25 151.458 229.151 150.943 231.641 150.828L234.594 150.734V150.484C234.594 149.693 234.396 149.13 234 148.797C233.615 148.464 233.094 148.297 232.438 148.297C231.74 148.297 230.958 148.422 230.094 148.672C229.24 148.911 228.38 149.224 227.516 149.609L225.75 145.578C226.771 145.057 227.927 144.661 229.219 144.391C230.51 144.12 231.958 143.984 233.562 143.984ZM234.625 154.094L233.219 154.156C232.094 154.198 231.302 154.396 230.844 154.75C230.396 155.094 230.172 155.589 230.172 156.234C230.172 156.839 230.333 157.286 230.656 157.578C230.979 157.859 231.406 158 231.938 158C232.677 158 233.307 157.766 233.828 157.297C234.359 156.828 234.625 156.219 234.625 155.469V154.094ZM245.219 139.156H253.188C256.49 139.156 258.844 139.646 260.25 140.625C261.656 141.604 262.359 143.01 262.359 144.844C262.359 145.844 262.177 146.693 261.812 147.391C261.458 148.089 261.005 148.641 260.453 149.047C259.911 149.453 259.354 149.729 258.781 149.875V150.031C259.406 150.188 260.026 150.448 260.641 150.812C261.266 151.167 261.781 151.703 262.188 152.422C262.604 153.13 262.812 154.094 262.812 155.312C262.812 156.698 262.458 157.891 261.75 158.891C261.052 159.891 260.052 160.661 258.75 161.203C257.448 161.734 255.901 162 254.109 162H245.219V139.156ZM251.391 147.922H253.25C254.271 147.922 254.99 147.714 255.406 147.297C255.823 146.87 256.031 146.354 256.031 145.75C256.031 145.125 255.792 144.651 255.312 144.328C254.844 143.995 254.115 143.828 253.125 143.828H251.391V147.922ZM251.391 152.438V157.234H253.562C254.635 157.234 255.385 157.005 255.812 156.547C256.24 156.078 256.453 155.495 256.453 154.797C256.453 154.391 256.359 154.01 256.172 153.656C255.995 153.292 255.688 153 255.25 152.781C254.812 152.552 254.208 152.438 253.438 152.438H251.391ZM283.328 153.109C283.328 154.589 283.125 155.901 282.719 157.047C282.312 158.193 281.724 159.156 280.953 159.938C280.182 160.719 279.25 161.312 278.156 161.719C277.062 162.115 275.828 162.312 274.453 162.312C273.172 162.312 271.995 162.115 270.922 161.719C269.859 161.312 268.932 160.719 268.141 159.938C267.349 159.156 266.734 158.193 266.297 157.047C265.87 155.901 265.656 154.589 265.656 153.109C265.656 151.151 266.01 149.495 266.719 148.141C267.438 146.786 268.458 145.755 269.781 145.047C271.115 144.339 272.703 143.984 274.547 143.984C276.245 143.984 277.755 144.339 279.078 145.047C280.401 145.755 281.438 146.786 282.188 148.141C282.948 149.495 283.328 151.151 283.328 153.109ZM271.859 153.109C271.859 154.12 271.948 154.974 272.125 155.672C272.302 156.359 272.583 156.885 272.969 157.25C273.365 157.604 273.88 157.781 274.516 157.781C275.151 157.781 275.656 157.604 276.031 157.25C276.406 156.885 276.677 156.359 276.844 155.672C277.021 154.974 277.109 154.12 277.109 153.109C277.109 152.099 277.021 151.255 276.844 150.578C276.677 149.901 276.401 149.391 276.016 149.047C275.641 148.703 275.13 148.531 274.484 148.531C273.557 148.531 272.885 148.917 272.469 149.688C272.062 150.458 271.859 151.599 271.859 153.109ZM292.938 162H286.828V137.688H292.938V162ZM302.672 162.312C300.849 162.312 299.349 161.536 298.172 159.984C296.995 158.432 296.406 156.161 296.406 153.172C296.406 150.151 297.01 147.865 298.219 146.312C299.427 144.76 300.99 143.984 302.906 143.984C303.698 143.984 304.38 144.099 304.953 144.328C305.526 144.557 306.021 144.87 306.438 145.266C306.865 145.651 307.234 146.089 307.547 146.578H307.672C307.599 146.13 307.531 145.516 307.469 144.734C307.406 143.943 307.375 143.172 307.375 142.422V137.688H313.531V162H308.922L307.609 159.766H307.375C307.094 160.234 306.74 160.661 306.312 161.047C305.896 161.432 305.385 161.74 304.781 161.969C304.188 162.198 303.484 162.312 302.672 162.312ZM305.172 157.484C306.151 157.484 306.839 157.177 307.234 156.562C307.641 155.938 307.859 154.99 307.891 153.719V153.234C307.891 151.839 307.693 150.771 307.297 150.031C306.911 149.281 306.182 148.906 305.109 148.906C304.38 148.906 303.776 149.26 303.297 149.969C302.818 150.677 302.578 151.776 302.578 153.266C302.578 154.734 302.818 155.807 303.297 156.484C303.786 157.151 304.411 157.484 305.172 157.484Z" fill="white"/>
<path d="M357.828 162L362.688 139.156H365.281L360.422 162H357.828ZM370.953 162.312C369.818 162.312 368.87 162.042 368.109 161.5C367.359 160.948 366.984 160.005 366.984 158.672C366.984 158.349 367.005 158 367.047 157.625C367.089 157.24 367.156 156.844 367.25 156.438L369.266 146.859H366.625L366.875 145.656L369.719 144.562L371.594 140.938H373.141L372.281 144.875H376.688L376.281 146.859H371.891L369.859 156.469C369.786 156.76 369.719 157.073 369.656 157.406C369.604 157.74 369.578 158.057 369.578 158.359C369.578 158.88 369.714 159.318 369.984 159.672C370.255 160.016 370.708 160.188 371.344 160.188C371.74 160.188 372.115 160.151 372.469 160.078C372.833 160.005 373.219 159.901 373.625 159.766V161.766C373.365 161.891 372.969 162.01 372.438 162.125C371.917 162.25 371.422 162.312 370.953 162.312ZM381.922 162.312C380.995 162.312 380.182 162.089 379.484 161.641C378.786 161.193 378.245 160.531 377.859 159.656C377.474 158.781 377.281 157.714 377.281 156.453C377.281 155.193 377.411 153.979 377.672 152.812C377.943 151.646 378.323 150.562 378.812 149.562C379.302 148.562 379.891 147.688 380.578 146.938C381.276 146.188 382.057 145.604 382.922 145.188C383.786 144.771 384.719 144.562 385.719 144.562C386.49 144.562 387.156 144.708 387.719 145C388.292 145.292 388.766 145.677 389.141 146.156C389.526 146.625 389.828 147.125 390.047 147.656H390.203L391.203 144.875H393.188L389.562 162H387.484L387.953 158.688H387.828C387.359 159.312 386.823 159.901 386.219 160.453C385.615 161.005 384.953 161.453 384.234 161.797C383.516 162.141 382.745 162.312 381.922 162.312ZM382.766 160.156C383.568 160.156 384.359 159.865 385.141 159.281C385.932 158.688 386.641 157.891 387.266 156.891C387.901 155.88 388.385 154.745 388.719 153.484C388.885 152.87 388.995 152.307 389.047 151.797C389.109 151.276 389.141 150.792 389.141 150.344C389.141 149.271 388.854 148.406 388.281 147.75C387.719 147.083 386.948 146.75 385.969 146.75C385.271 146.75 384.615 146.927 384 147.281C383.385 147.625 382.828 148.109 382.328 148.734C381.839 149.349 381.417 150.068 381.062 150.891C380.708 151.703 380.432 152.589 380.234 153.547C380.047 154.505 379.953 155.49 379.953 156.5C379.953 157.698 380.198 158.609 380.688 159.234C381.177 159.849 381.87 160.156 382.766 160.156ZM394.703 162L399.891 137.688H402.484L397.312 162H394.703ZM402.828 162L406.469 144.875H409.078L405.438 162H402.828ZM408.656 141.875C408.24 141.875 407.891 141.755 407.609 141.516C407.339 141.266 407.203 140.917 407.203 140.469C407.203 140.125 407.271 139.802 407.406 139.5C407.552 139.198 407.755 138.958 408.016 138.781C408.286 138.594 408.615 138.5 409 138.5C409.458 138.5 409.802 138.62 410.031 138.859C410.26 139.099 410.375 139.432 410.375 139.859C410.375 140.474 410.198 140.964 409.844 141.328C409.49 141.693 409.094 141.875 408.656 141.875ZM417.922 162.312C416.651 162.312 415.536 162.073 414.578 161.594C413.63 161.104 412.891 160.385 412.359 159.438C411.839 158.49 411.578 157.312 411.578 155.906C411.578 154.688 411.708 153.516 411.969 152.391C412.24 151.266 412.63 150.229 413.141 149.281C413.651 148.333 414.271 147.505 415 146.797C415.729 146.089 416.557 145.542 417.484 145.156C418.422 144.76 419.443 144.562 420.547 144.562C421.286 144.562 422.021 144.635 422.75 144.781C423.49 144.917 424.156 145.115 424.75 145.375L424.016 147.562C423.578 147.354 423.062 147.167 422.469 147C421.875 146.833 421.24 146.75 420.562 146.75C419.615 146.75 418.75 146.99 417.969 147.469C417.198 147.948 416.531 148.615 415.969 149.469C415.417 150.312 414.99 151.281 414.688 152.375C414.385 153.469 414.234 154.635 414.234 155.875C414.234 156.76 414.391 157.526 414.703 158.172C415.016 158.807 415.464 159.297 416.047 159.641C416.641 159.984 417.349 160.156 418.172 160.156C418.932 160.156 419.646 160.052 420.312 159.844C420.99 159.635 421.651 159.385 422.297 159.094V161.312C421.724 161.604 421.068 161.844 420.328 162.031C419.599 162.219 418.797 162.312 417.922 162.312Z" fill="white"/>
<path d="M44.5156 234L49.3594 211.156H50.9531L46.4219 232.531H56.2969L55.9844 234H44.5156ZM59.5781 234L63.1719 217.016H64.75L61.1562 234H59.5781ZM64.9375 213.312C64.625 213.312 64.3698 213.229 64.1719 213.062C63.9844 212.885 63.8906 212.635 63.8906 212.312C63.8906 212.052 63.9375 211.802 64.0312 211.562C64.1354 211.323 64.2865 211.13 64.4844 210.984C64.6823 210.828 64.9219 210.75 65.2031 210.75C65.5469 210.75 65.7969 210.844 65.9531 211.031C66.1094 211.208 66.1875 211.438 66.1875 211.719C66.1875 212.146 66.0677 212.521 65.8281 212.844C65.5885 213.156 65.2917 213.312 64.9375 213.312ZM70.7969 241.688C68.8698 241.688 67.3542 241.312 66.25 240.562C65.1562 239.812 64.6094 238.755 64.6094 237.391C64.6094 236.161 65.0104 235.109 65.8125 234.234C66.6042 233.37 67.7865 232.682 69.3594 232.172C68.9844 231.964 68.7031 231.693 68.5156 231.359C68.3281 231.016 68.2344 230.641 68.2344 230.234C68.2344 229.599 68.4688 229.026 68.9375 228.516C69.4062 228.005 70.099 227.552 71.0156 227.156C70.2969 226.76 69.75 226.188 69.375 225.438C69 224.688 68.8229 223.875 68.8438 223C68.8646 221.99 69.0573 221.083 69.4219 220.281C69.7865 219.469 70.2917 218.781 70.9375 218.219C71.5 217.74 72.151 217.37 72.8906 217.109C73.6302 216.839 74.4427 216.703 75.3281 216.703C75.6927 216.703 76.0469 216.734 76.3906 216.797C76.7448 216.849 77.0781 216.927 77.3906 217.031H83.125L82.8594 218.219L79.0312 218.375C79.3646 218.76 79.6146 219.224 79.7812 219.766C79.9583 220.297 80.0365 220.885 80.0156 221.531C79.9948 222.479 79.8281 223.344 79.5156 224.125C79.2031 224.906 78.7552 225.573 78.1719 226.125C77.6198 226.635 76.9531 227.036 76.1719 227.328C75.3906 227.609 74.5 227.75 73.5 227.75C73.25 227.75 73.0156 227.74 72.7969 227.719C72.5781 227.688 72.375 227.651 72.1875 227.609C71.2812 227.891 70.6354 228.26 70.25 228.719C69.8646 229.167 69.6719 229.594 69.6719 230C69.6719 230.396 69.8073 230.719 70.0781 230.969C70.2656 231.125 70.5104 231.255 70.8125 231.359C71.125 231.464 71.5052 231.531 71.9531 231.562L73.8594 231.734C75.0573 231.849 76.0521 232.078 76.8438 232.422C77.6458 232.755 78.2448 233.208 78.6406 233.781C79.0469 234.354 79.25 235.042 79.25 235.844C79.25 236.927 78.9844 237.854 78.4531 238.625C77.9323 239.396 77.2292 240.021 76.3438 240.5C75.5833 240.896 74.724 241.193 73.7656 241.391C72.8177 241.589 71.8281 241.688 70.7969 241.688ZM70.9531 240.438C71.9323 240.438 72.8125 240.344 73.5938 240.156C74.3854 239.979 75.0677 239.724 75.6406 239.391C76.3281 239.005 76.849 238.526 77.2031 237.953C77.5677 237.38 77.75 236.74 77.75 236.031C77.75 235.646 77.6927 235.307 77.5781 235.016C77.4635 234.724 77.2917 234.469 77.0625 234.25C76.6979 233.885 76.1927 233.604 75.5469 233.406C74.9115 233.208 74.1406 233.073 73.2344 233L70.625 232.766C69.5938 233.026 68.7448 233.375 68.0781 233.812C67.4115 234.25 66.9167 234.755 66.5938 235.328C66.2708 235.911 66.1094 236.552 66.1094 237.25C66.1094 238.323 66.5417 239.12 67.4062 239.641C68.2708 240.172 69.4531 240.438 70.9531 240.438ZM73.6875 226.562C74.6875 226.562 75.5417 226.344 76.25 225.906C76.9688 225.469 77.526 224.865 77.9219 224.094C78.3177 223.323 78.5208 222.453 78.5312 221.484C78.5521 220.922 78.4844 220.422 78.3281 219.984C78.1823 219.536 77.9583 219.161 77.6562 218.859C77.375 218.557 77.0208 218.328 76.5938 218.172C76.1771 218.005 75.7031 217.922 75.1719 217.922C74.4323 217.922 73.7656 218.052 73.1719 218.312C72.5781 218.562 72.0729 218.917 71.6562 219.375C71.2396 219.823 70.9167 220.354 70.6875 220.969C70.4583 221.583 70.3385 222.255 70.3281 222.984C70.3281 223.474 70.3802 223.917 70.4844 224.312C70.5885 224.708 70.7448 225.052 70.9531 225.344C71.526 226.156 72.4375 226.562 73.6875 226.562ZM83.2344 234L88.375 209.688H89.9531L88.5781 216.094C88.4635 216.625 88.3385 217.172 88.2031 217.734C88.0781 218.297 87.9479 218.854 87.8125 219.406C87.6771 219.948 87.5469 220.474 87.4219 220.984H87.5156C87.901 220.349 88.401 219.703 89.0156 219.047C89.6302 218.391 90.3594 217.839 91.2031 217.391C92.0573 216.932 93.0104 216.703 94.0625 216.703C94.9792 216.703 95.7552 216.865 96.3906 217.188C97.0365 217.5 97.5312 217.969 97.875 218.594C98.2188 219.219 98.3906 220 98.3906 220.938C98.3906 221.281 98.3594 221.651 98.2969 222.047C98.2448 222.432 98.1771 222.833 98.0938 223.25L95.8125 234H94.2344L96.5469 223.062C96.6406 222.667 96.7031 222.307 96.7344 221.984C96.776 221.651 96.7969 221.359 96.7969 221.109C96.7969 220.089 96.5312 219.328 96 218.828C95.4688 218.328 94.7031 218.078 93.7031 218.078C92.6927 218.078 91.6979 218.401 90.7188 219.047C89.75 219.682 88.8958 220.578 88.1562 221.734C87.4167 222.88 86.8802 224.219 86.5469 225.75L84.8125 234H83.2344ZM105.422 234.312C104.339 234.312 103.495 234.047 102.891 233.516C102.286 232.984 101.984 232.172 101.984 231.078C101.984 230.786 102.005 230.469 102.047 230.125C102.089 229.781 102.151 229.427 102.234 229.062L104.5 218.312H101.969L102.172 217.391L104.797 216.875L106.203 212.922H107.25L106.375 217.016H111.25L110.969 218.312H106.094L103.828 229.016C103.755 229.349 103.693 229.677 103.641 230C103.599 230.323 103.578 230.625 103.578 230.906C103.578 231.531 103.734 232.031 104.047 232.406C104.359 232.771 104.88 232.953 105.609 232.953C106.078 232.953 106.5 232.917 106.875 232.844C107.26 232.771 107.635 232.672 108 232.547V233.844C107.688 233.958 107.307 234.062 106.859 234.156C106.422 234.26 105.943 234.312 105.422 234.312ZM119.766 234L123.359 217.016H124.938L121.344 234H119.766ZM125.125 213.312C124.812 213.312 124.557 213.229 124.359 213.062C124.172 212.885 124.078 212.635 124.078 212.312C124.078 212.052 124.125 211.802 124.219 211.562C124.323 211.323 124.474 211.13 124.672 210.984C124.87 210.828 125.109 210.75 125.391 210.75C125.734 210.75 125.984 210.844 126.141 211.031C126.297 211.208 126.375 211.438 126.375 211.719C126.375 212.146 126.255 212.521 126.016 212.844C125.776 213.156 125.479 213.312 125.125 213.312ZM131.172 234.312C130.089 234.312 129.245 234.047 128.641 233.516C128.036 232.984 127.734 232.172 127.734 231.078C127.734 230.786 127.755 230.469 127.797 230.125C127.839 229.781 127.901 229.427 127.984 229.062L130.25 218.312H127.719L127.922 217.391L130.547 216.875L131.953 212.922H133L132.125 217.016H137L136.719 218.312H131.844L129.578 229.016C129.505 229.349 129.443 229.677 129.391 230C129.349 230.323 129.328 230.625 129.328 230.906C129.328 231.531 129.484 232.031 129.797 232.406C130.109 232.771 130.63 232.953 131.359 232.953C131.828 232.953 132.25 232.917 132.625 232.844C133.01 232.771 133.385 232.672 133.75 232.547V233.844C133.438 233.958 133.057 234.062 132.609 234.156C132.172 234.26 131.693 234.312 131.172 234.312ZM142.469 234.312C141.49 234.312 140.651 234.073 139.953 233.594C139.255 233.115 138.724 232.432 138.359 231.547C137.995 230.651 137.812 229.589 137.812 228.359C137.812 227.224 137.932 226.099 138.172 224.984C138.422 223.87 138.781 222.818 139.25 221.828C139.729 220.828 140.312 219.943 141 219.172C141.688 218.401 142.479 217.797 143.375 217.359C144.271 216.911 145.255 216.688 146.328 216.688C147.234 216.688 147.99 216.88 148.594 217.266C149.198 217.641 149.672 218.115 150.016 218.688C150.359 219.26 150.609 219.839 150.766 220.422H150.875L151.781 217.016H153.031L149.438 234H148.156L148.859 230.031H148.781C148.375 230.667 147.854 231.318 147.219 231.984C146.594 232.641 145.875 233.193 145.062 233.641C144.26 234.089 143.396 234.312 142.469 234.312ZM142.891 232.938C143.786 232.938 144.693 232.615 145.609 231.969C146.536 231.312 147.365 230.427 148.094 229.312C148.823 228.188 149.344 226.922 149.656 225.516C149.802 224.88 149.901 224.318 149.953 223.828C150.016 223.339 150.047 222.885 150.047 222.469C150.047 221.094 149.724 220.021 149.078 219.25C148.432 218.469 147.547 218.078 146.422 218.078C145.547 218.078 144.745 218.271 144.016 218.656C143.286 219.042 142.641 219.573 142.078 220.25C141.516 220.927 141.036 221.703 140.641 222.578C140.255 223.453 139.958 224.385 139.75 225.375C139.542 226.365 139.438 227.365 139.438 228.375C139.438 229.812 139.729 230.932 140.312 231.734C140.896 232.536 141.755 232.938 142.891 232.938ZM154.938 234L160.094 209.688H161.672L156.516 234H154.938ZM162.203 234L165.797 217.016H167.375L163.781 234H162.203ZM167.562 213.312C167.25 213.312 166.995 213.229 166.797 213.062C166.609 212.885 166.516 212.635 166.516 212.312C166.516 212.052 166.562 211.802 166.656 211.562C166.76 211.323 166.911 211.13 167.109 210.984C167.307 210.828 167.547 210.75 167.828 210.75C168.172 210.75 168.422 210.844 168.578 211.031C168.734 211.208 168.812 211.438 168.812 211.719C168.812 212.146 168.693 212.521 168.453 212.844C168.214 213.156 167.917 213.312 167.562 213.312ZM176.375 234.312C175.073 234.312 173.958 234.047 173.031 233.516C172.104 232.974 171.391 232.219 170.891 231.25C170.401 230.281 170.156 229.146 170.156 227.844C170.156 226.656 170.281 225.51 170.531 224.406C170.792 223.302 171.172 222.281 171.672 221.344C172.172 220.406 172.781 219.594 173.5 218.906C174.229 218.208 175.062 217.667 176 217.281C176.948 216.885 177.984 216.688 179.109 216.688C179.839 216.688 180.557 216.755 181.266 216.891C181.984 217.026 182.615 217.219 183.156 217.469L182.703 218.859C182.214 218.62 181.646 218.432 181 218.297C180.365 218.151 179.734 218.078 179.109 218.078C177.995 218.078 176.984 218.333 176.078 218.844C175.172 219.344 174.396 220.042 173.75 220.938C173.115 221.833 172.625 222.87 172.281 224.047C171.938 225.214 171.766 226.464 171.766 227.797C171.766 228.786 171.943 229.672 172.297 230.453C172.661 231.224 173.198 231.833 173.906 232.281C174.615 232.719 175.479 232.938 176.5 232.938C177.26 232.938 177.969 232.849 178.625 232.672C179.281 232.484 179.938 232.24 180.594 231.938V233.359C180.052 233.63 179.432 233.854 178.734 234.031C178.036 234.219 177.25 234.312 176.375 234.312Z" fill="white"/>
<path d="M229.094 234.312C227.948 234.312 226.922 234.208 226.016 234C225.12 233.792 224.323 233.49 223.625 233.094V229.656C224.427 230.083 225.276 230.443 226.172 230.734C227.078 231.016 228.062 231.156 229.125 231.156C229.75 231.156 230.339 231.094 230.891 230.969C231.443 230.833 231.932 230.625 232.359 230.344C232.786 230.062 233.12 229.708 233.359 229.281C233.599 228.844 233.719 228.328 233.719 227.734C233.719 227.13 233.594 226.609 233.344 226.172C233.094 225.734 232.724 225.323 232.234 224.938C231.745 224.542 231.13 224.115 230.391 223.656C229.682 223.198 229.021 222.693 228.406 222.141C227.792 221.589 227.297 220.948 226.922 220.219C226.547 219.479 226.359 218.604 226.359 217.594C226.359 216.552 226.547 215.615 226.922 214.781C227.307 213.948 227.844 213.24 228.531 212.656C229.229 212.062 230.042 211.609 230.969 211.297C231.906 210.984 232.922 210.828 234.016 210.828C235.203 210.828 236.271 210.953 237.219 211.203C238.167 211.443 239.083 211.797 239.969 212.266L238.609 215.203C237.911 214.859 237.172 214.578 236.391 214.359C235.62 214.13 234.828 214.016 234.016 214.016C233.474 214.016 232.969 214.089 232.5 214.234C232.042 214.38 231.641 214.594 231.297 214.875C230.953 215.156 230.682 215.505 230.484 215.922C230.297 216.328 230.203 216.797 230.203 217.328C230.203 217.932 230.323 218.443 230.562 218.859C230.802 219.276 231.151 219.661 231.609 220.016C232.068 220.359 232.625 220.734 233.281 221.141C234.167 221.693 234.927 222.26 235.562 222.844C236.198 223.427 236.682 224.078 237.016 224.797C237.349 225.516 237.516 226.365 237.516 227.344C237.516 228.521 237.302 229.547 236.875 230.422C236.458 231.286 235.865 232.01 235.094 232.594C234.333 233.167 233.443 233.599 232.422 233.891C231.401 234.172 230.292 234.312 229.094 234.312ZM247.609 234.312C246.286 234.312 245.13 234.062 244.141 233.562C243.161 233.052 242.401 232.307 241.859 231.328C241.328 230.339 241.062 229.13 241.062 227.703C241.062 226.286 241.266 224.906 241.672 223.562C242.078 222.208 242.677 220.99 243.469 219.906C244.26 218.823 245.224 217.964 246.359 217.328C247.495 216.693 248.786 216.375 250.234 216.375C252.005 216.375 253.333 216.776 254.219 217.578C255.115 218.37 255.562 219.422 255.562 220.734C255.562 221.63 255.359 222.448 254.953 223.188C254.547 223.927 253.927 224.568 253.094 225.109C252.271 225.641 251.224 226.052 249.953 226.344C248.693 226.635 247.208 226.781 245.5 226.781H244.797C244.786 226.938 244.776 227.099 244.766 227.266C244.755 227.422 244.75 227.578 244.75 227.734C244.75 228.891 245.052 229.802 245.656 230.469C246.26 231.125 247.141 231.453 248.297 231.453C249.172 231.453 249.979 231.344 250.719 231.125C251.458 230.906 252.286 230.578 253.203 230.141V233.031C252.359 233.438 251.505 233.755 250.641 233.984C249.776 234.203 248.766 234.312 247.609 234.312ZM245.25 224.125H245.781C247.052 224.125 248.156 224.005 249.094 223.766C250.031 223.516 250.755 223.151 251.266 222.672C251.776 222.182 252.031 221.589 252.031 220.891C252.031 220.349 251.859 219.927 251.516 219.625C251.182 219.312 250.682 219.156 250.016 219.156C249.359 219.156 248.714 219.359 248.078 219.766C247.443 220.161 246.875 220.734 246.375 221.484C245.875 222.224 245.5 223.104 245.25 224.125ZM257.219 234L260.891 216.703H263.75L263.375 219.969H263.531C263.938 219.354 264.406 218.776 264.938 218.234C265.479 217.682 266.089 217.234 266.766 216.891C267.453 216.547 268.224 216.375 269.078 216.375C270.286 216.375 271.208 216.708 271.844 217.375C272.49 218.042 272.891 218.953 273.047 220.109H273.172C273.599 219.443 274.094 218.828 274.656 218.266C275.229 217.703 275.87 217.25 276.578 216.906C277.297 216.552 278.078 216.375 278.922 216.375C280.318 216.375 281.375 216.781 282.094 217.594C282.812 218.406 283.172 219.542 283.172 221C283.172 221.438 283.141 221.885 283.078 222.344C283.026 222.802 282.943 223.276 282.828 223.766L280.672 234H277.016L279.25 223.5C279.333 223.094 279.396 222.729 279.438 222.406C279.49 222.073 279.516 221.76 279.516 221.469C279.516 220.792 279.354 220.276 279.031 219.922C278.719 219.557 278.24 219.375 277.594 219.375C277.052 219.375 276.516 219.536 275.984 219.859C275.464 220.182 274.969 220.651 274.5 221.266C274.031 221.88 273.615 222.625 273.25 223.5C272.885 224.365 272.589 225.344 272.359 226.438L270.766 234H267.125L269.328 223.531C269.422 223.115 269.49 222.74 269.531 222.406C269.573 222.073 269.594 221.781 269.594 221.531C269.594 220.833 269.443 220.302 269.141 219.938C268.849 219.562 268.38 219.375 267.734 219.375C267.193 219.375 266.656 219.536 266.125 219.859C265.594 220.182 265.094 220.656 264.625 221.281C264.156 221.906 263.734 222.667 263.359 223.562C262.984 224.448 262.677 225.464 262.438 226.609L260.875 234H257.219ZM285.656 234L289.328 216.703H292.984L289.312 234H285.656ZM291.969 214.109C291.427 214.109 290.974 213.979 290.609 213.719C290.245 213.448 290.062 213.026 290.062 212.453C290.062 211.974 290.151 211.557 290.328 211.203C290.516 210.849 290.781 210.578 291.125 210.391C291.479 210.193 291.901 210.094 292.391 210.094C292.932 210.094 293.375 210.224 293.719 210.484C294.062 210.734 294.234 211.141 294.234 211.703C294.234 212.432 294.031 213.016 293.625 213.453C293.219 213.891 292.667 214.109 291.969 214.109ZM294.812 234L299.641 211.156H305.922C307.359 211.156 308.599 211.333 309.641 211.688C310.682 212.042 311.484 212.594 312.047 213.344C312.62 214.094 312.906 215.073 312.906 216.281C312.906 217.312 312.698 218.229 312.281 219.031C311.875 219.823 311.292 220.479 310.531 221C309.781 221.51 308.88 221.87 307.828 222.078V222.219C308.88 222.5 309.734 223.021 310.391 223.781C311.047 224.531 311.375 225.51 311.375 226.719C311.375 228.365 310.984 229.729 310.203 230.812C309.432 231.885 308.375 232.688 307.031 233.219C305.698 233.74 304.177 234 302.469 234H294.812ZM299.172 230.859H302.672C303.672 230.859 304.536 230.703 305.266 230.391C306.005 230.078 306.573 229.615 306.969 229C307.375 228.385 307.578 227.63 307.578 226.734C307.578 225.786 307.281 225.026 306.688 224.453C306.104 223.88 305.167 223.594 303.875 223.594H300.719L299.172 230.859ZM301.344 220.578H304.469C305.354 220.578 306.141 220.453 306.828 220.203C307.526 219.943 308.073 219.547 308.469 219.016C308.875 218.474 309.078 217.786 309.078 216.953C309.078 216.078 308.797 215.411 308.234 214.953C307.682 214.495 306.797 214.266 305.578 214.266H302.688L301.344 220.578ZM321.25 234.281C319.938 234.281 318.792 234.01 317.812 233.469C316.833 232.927 316.073 232.161 315.531 231.172C315 230.172 314.734 228.99 314.734 227.625C314.734 226.469 314.854 225.344 315.094 224.25C315.344 223.156 315.708 222.135 316.188 221.188C316.667 220.24 317.266 219.411 317.984 218.703C318.703 217.984 319.536 217.427 320.484 217.031C321.432 216.625 322.495 216.422 323.672 216.422C325.016 216.422 326.172 216.693 327.141 217.234C328.109 217.776 328.854 218.552 329.375 219.562C329.896 220.573 330.156 221.781 330.156 223.188C330.156 224.312 330.036 225.411 329.797 226.484C329.568 227.557 329.219 228.568 328.75 229.516C328.281 230.453 327.688 231.281 326.969 232C326.26 232.708 325.427 233.266 324.469 233.672C323.521 234.078 322.448 234.281 321.25 234.281ZM321.516 231.281C322.099 231.281 322.641 231.151 323.141 230.891C323.651 230.62 324.109 230.24 324.516 229.75C324.922 229.25 325.266 228.661 325.547 227.984C325.839 227.297 326.062 226.536 326.219 225.703C326.375 224.87 326.453 223.979 326.453 223.031C326.453 222.396 326.359 221.807 326.172 221.266C325.984 220.714 325.672 220.271 325.234 219.938C324.807 219.594 324.234 219.422 323.516 219.422C322.87 219.422 322.276 219.578 321.734 219.891C321.203 220.193 320.729 220.615 320.312 221.156C319.906 221.698 319.562 222.323 319.281 223.031C319 223.729 318.786 224.479 318.641 225.281C318.495 226.073 318.422 226.875 318.422 227.688C318.422 228.844 318.682 229.734 319.203 230.359C319.734 230.974 320.505 231.281 321.516 231.281ZM332.359 234L337.531 209.688H341.172L336.016 234H332.359ZM346.719 234.312C345.823 234.312 345.01 234.099 344.281 233.672C343.562 233.245 342.99 232.583 342.562 231.688C342.135 230.781 341.922 229.62 341.922 228.203C341.922 227.016 342.042 225.854 342.281 224.719C342.531 223.573 342.891 222.5 343.359 221.5C343.828 220.49 344.401 219.604 345.078 218.844C345.755 218.073 346.521 217.474 347.375 217.047C348.24 216.609 349.177 216.391 350.188 216.391C350.938 216.391 351.578 216.521 352.109 216.781C352.641 217.042 353.089 217.385 353.453 217.812C353.818 218.24 354.125 218.703 354.375 219.203H354.516C354.547 218.932 354.583 218.589 354.625 218.172C354.677 217.745 354.74 217.286 354.812 216.797C354.885 216.297 354.974 215.812 355.078 215.344L356.281 209.688H359.922L354.766 234H351.906L352.25 231.203H352.141C351.682 231.786 351.182 232.312 350.641 232.781C350.109 233.25 349.521 233.625 348.875 233.906C348.229 234.177 347.51 234.312 346.719 234.312ZM348.141 231.328C348.63 231.328 349.099 231.203 349.547 230.953C350.005 230.703 350.427 230.359 350.812 229.922C351.208 229.474 351.568 228.964 351.891 228.391C352.214 227.807 352.49 227.188 352.719 226.531C352.948 225.875 353.125 225.208 353.25 224.531C353.375 223.854 353.438 223.198 353.438 222.562C353.438 221.594 353.203 220.823 352.734 220.25C352.276 219.667 351.589 219.375 350.672 219.375C350.078 219.375 349.526 219.542 349.016 219.875C348.505 220.208 348.042 220.661 347.625 221.234C347.208 221.807 346.849 222.469 346.547 223.219C346.255 223.958 346.031 224.75 345.875 225.594C345.719 226.438 345.641 227.281 345.641 228.125C345.641 229.177 345.849 229.974 346.266 230.516C346.693 231.057 347.318 231.328 348.141 231.328ZM368.578 234L373.438 211.156H377.125L372.25 234H368.578ZM383.062 234.312C381.802 234.312 380.776 234.031 379.984 233.469C379.203 232.896 378.812 231.896 378.812 230.469C378.812 230.188 378.828 229.88 378.859 229.547C378.901 229.203 378.958 228.849 379.031 228.484L380.938 219.484H378.438L378.781 217.734L381.734 216.531L383.703 212.875H386L385.188 216.703H389.594L389 219.484H384.609L382.688 228.5C382.635 228.719 382.589 228.953 382.547 229.203C382.516 229.443 382.5 229.661 382.5 229.859C382.5 230.328 382.63 230.693 382.891 230.953C383.151 231.214 383.547 231.344 384.078 231.344C384.484 231.344 384.875 231.302 385.25 231.219C385.625 231.135 386.036 231.016 386.484 230.859V233.625C386.099 233.802 385.599 233.958 384.984 234.094C384.37 234.24 383.729 234.312 383.062 234.312ZM395.078 234.312C394.193 234.312 393.385 234.099 392.656 233.672C391.938 233.234 391.365 232.568 390.938 231.672C390.51 230.766 390.297 229.615 390.297 228.219C390.297 227.01 390.422 225.833 390.672 224.688C390.932 223.542 391.297 222.469 391.766 221.469C392.245 220.469 392.823 219.589 393.5 218.828C394.177 218.057 394.943 217.458 395.797 217.031C396.651 216.594 397.573 216.375 398.562 216.375C399.312 216.375 399.969 216.505 400.531 216.766C401.094 217.016 401.568 217.354 401.953 217.781C402.339 218.208 402.651 218.682 402.891 219.203H403.031L403.969 216.703H406.781L403.109 234H400.312L400.656 231.203H400.531C400.083 231.776 399.583 232.297 399.031 232.766C398.49 233.234 397.891 233.609 397.234 233.891C396.578 234.172 395.859 234.312 395.078 234.312ZM396.422 231.328C397.151 231.328 397.849 231.057 398.516 230.516C399.182 229.964 399.771 229.234 400.281 228.328C400.802 227.422 401.188 226.427 401.438 225.344C401.562 224.823 401.646 224.328 401.688 223.859C401.74 223.391 401.766 222.922 401.766 222.453C401.766 221.547 401.526 220.807 401.047 220.234C400.568 219.661 399.911 219.375 399.078 219.375C398.505 219.375 397.958 219.536 397.438 219.859C396.927 220.182 396.464 220.63 396.047 221.203C395.63 221.766 395.266 222.417 394.953 223.156C394.651 223.896 394.417 224.693 394.25 225.547C394.094 226.391 394.016 227.25 394.016 228.125C394.016 229.177 394.224 229.974 394.641 230.516C395.068 231.057 395.661 231.328 396.422 231.328ZM408.109 234L413.281 209.688H416.922L411.766 234H408.109ZM416.938 234L420.609 216.703H424.266L420.594 234H416.938ZM423.25 214.109C422.708 214.109 422.255 213.979 421.891 213.719C421.526 213.448 421.344 213.026 421.344 212.453C421.344 211.974 421.432 211.557 421.609 211.203C421.797 210.849 422.062 210.578 422.406 210.391C422.76 210.193 423.182 210.094 423.672 210.094C424.214 210.094 424.656 210.224 425 210.484C425.344 210.734 425.516 211.141 425.516 211.703C425.516 212.432 425.312 213.016 424.906 213.453C424.5 213.891 423.948 214.109 423.25 214.109ZM432.906 234.312C431.667 234.312 430.562 234.083 429.594 233.625C428.625 233.167 427.865 232.464 427.312 231.516C426.76 230.568 426.484 229.359 426.484 227.891C426.484 226.651 426.615 225.464 426.875 224.328C427.146 223.182 427.536 222.13 428.047 221.172C428.557 220.203 429.182 219.365 429.922 218.656C430.661 217.938 431.505 217.38 432.453 216.984C433.401 216.578 434.448 216.375 435.594 216.375C436.49 216.375 437.328 216.464 438.109 216.641C438.891 216.807 439.609 217.042 440.266 217.344L439.172 220.234C438.672 220.005 438.135 219.807 437.562 219.641C437 219.464 436.38 219.375 435.703 219.375C434.859 219.375 434.099 219.604 433.422 220.062C432.745 220.51 432.167 221.13 431.688 221.922C431.208 222.703 430.839 223.589 430.578 224.578C430.328 225.568 430.203 226.604 430.203 227.688C430.203 228.458 430.333 229.115 430.594 229.656C430.854 230.198 431.229 230.615 431.719 230.906C432.219 231.188 432.818 231.328 433.516 231.328C434.286 231.328 435.01 231.219 435.688 231C436.365 230.771 437.042 230.49 437.719 230.156V233.188C437.073 233.531 436.354 233.802 435.562 234C434.771 234.208 433.885 234.312 432.906 234.312Z" fill="white"/>
<path d="M44.1875 306L49.0156 283.156H55.6719C57.1302 283.156 58.401 283.328 59.4844 283.672C60.5677 284.005 61.4062 284.547 62 285.297C62.6042 286.036 62.9062 287.016 62.9062 288.234C62.9062 289.266 62.7083 290.182 62.3125 290.984C61.9271 291.776 61.3646 292.438 60.625 292.969C59.8854 293.49 58.9844 293.865 57.9219 294.094V294.219C58.9635 294.49 59.7917 294.995 60.4062 295.734C61.0312 296.464 61.3438 297.401 61.3438 298.547C61.3438 300.276 60.9479 301.693 60.1562 302.797C59.3646 303.891 58.2865 304.698 56.9219 305.219C55.5677 305.74 54.0417 306 52.3438 306H44.1875ZM49.7969 302H52.6094C53.3906 302 54.0729 301.87 54.6562 301.609C55.2396 301.349 55.6927 300.964 56.0156 300.453C56.349 299.943 56.5156 299.318 56.5156 298.578C56.5156 297.776 56.276 297.156 55.7969 296.719C55.3281 296.271 54.6146 296.047 53.6562 296.047H51.0781L49.7969 302ZM51.875 292.203H54.2031C54.9635 292.203 55.625 292.104 56.1875 291.906C56.7604 291.698 57.2031 291.38 57.5156 290.953C57.8281 290.516 57.9844 289.953 57.9844 289.266C57.9844 288.557 57.7656 288.026 57.3281 287.672C56.8906 287.307 56.224 287.125 55.3281 287.125H52.9531L51.875 292.203ZM71.2969 306.312C69.9844 306.312 68.8229 306.042 67.8125 305.5C66.8125 304.958 66.026 304.188 65.4531 303.188C64.8906 302.177 64.6094 300.979 64.6094 299.594C64.6094 298.354 64.7292 297.172 64.9688 296.047C65.2188 294.911 65.5885 293.87 66.0781 292.922C66.5781 291.964 67.1979 291.135 67.9375 290.438C68.6875 289.729 69.5573 289.182 70.5469 288.797C71.5365 288.401 72.651 288.203 73.8906 288.203C75.2448 288.203 76.4167 288.479 77.4062 289.031C78.3958 289.573 79.1615 290.359 79.7031 291.391C80.2448 292.422 80.5156 293.667 80.5156 295.125C80.5156 296.312 80.3958 297.458 80.1562 298.562C79.9271 299.656 79.5729 300.677 79.0938 301.625C78.6146 302.562 78.0104 303.385 77.2812 304.094C76.5521 304.792 75.6875 305.339 74.6875 305.734C73.6979 306.12 72.5677 306.312 71.2969 306.312ZM71.6875 302.484C72.2083 302.484 72.6823 302.354 73.1094 302.094C73.5365 301.823 73.9167 301.453 74.25 300.984C74.5833 300.505 74.8594 299.958 75.0781 299.344C75.3073 298.719 75.4792 298.047 75.5938 297.328C75.7188 296.609 75.7812 295.875 75.7812 295.125C75.7812 294.531 75.7083 294.005 75.5625 293.547C75.4271 293.078 75.1927 292.714 74.8594 292.453C74.5365 292.182 74.099 292.047 73.5469 292.047C72.974 292.047 72.4583 292.208 72 292.531C71.5521 292.844 71.1615 293.266 70.8281 293.797C70.4948 294.328 70.2188 294.922 70 295.578C69.7812 296.234 69.6146 296.911 69.5 297.609C69.3958 298.297 69.3438 298.958 69.3438 299.594C69.3438 300.542 69.5365 301.26 69.9219 301.75C70.3073 302.24 70.8958 302.484 71.6875 302.484ZM82.5 306L87.6562 281.688H92.3594L87.2031 306H82.5ZM97.7656 306.312C96.9219 306.312 96.125 306.104 95.375 305.688C94.625 305.271 94.0104 304.599 93.5312 303.672C93.0625 302.734 92.8281 301.495 92.8281 299.953C92.8281 298.818 92.9479 297.688 93.1875 296.562C93.4375 295.438 93.7917 294.375 94.25 293.375C94.7188 292.365 95.2812 291.474 95.9375 290.703C96.6042 289.922 97.3542 289.312 98.1875 288.875C99.0312 288.427 99.9427 288.203 100.922 288.203C101.62 288.203 102.208 288.318 102.688 288.547C103.177 288.776 103.599 289.083 103.953 289.469C104.307 289.854 104.62 290.286 104.891 290.766H105.016C105.016 290.703 105.031 290.474 105.062 290.078C105.094 289.682 105.141 289.229 105.203 288.719C105.266 288.198 105.344 287.719 105.438 287.281L106.625 281.688H111.328L106.172 306H102.594L102.875 303.734H102.75C102.333 304.245 101.88 304.693 101.391 305.078C100.911 305.464 100.375 305.766 99.7812 305.984C99.1875 306.203 98.5156 306.312 97.7656 306.312ZM99.7344 302.516C100.224 302.516 100.667 302.385 101.062 302.125C101.469 301.854 101.823 301.5 102.125 301.062C102.438 300.615 102.703 300.115 102.922 299.562C103.151 299.01 103.339 298.448 103.484 297.875C103.63 297.292 103.734 296.729 103.797 296.188C103.87 295.646 103.906 295.172 103.906 294.766C103.906 293.932 103.708 293.266 103.312 292.766C102.927 292.266 102.396 292.016 101.719 292.016C101.26 292.016 100.823 292.167 100.406 292.469C100 292.76 99.625 293.167 99.2812 293.688C98.9375 294.198 98.6354 294.786 98.375 295.453C98.125 296.109 97.9323 296.807 97.7969 297.547C97.6615 298.286 97.5938 299.026 97.5938 299.766C97.5938 300.672 97.776 301.359 98.1406 301.828C98.5156 302.286 99.0469 302.516 99.7344 302.516ZM119.562 306L124.422 283.156H129.203L124.328 306H119.562ZM135.422 306.312C134.036 306.312 132.932 306.021 132.109 305.438C131.286 304.854 130.875 303.802 130.875 302.281C130.875 302.031 130.891 301.76 130.922 301.469C130.953 301.167 131 300.854 131.062 300.531L132.859 292.109H130.484L130.938 289.812L134 288.5L136.062 284.812H139.094L138.328 288.531H142.75L141.969 292.109H137.562L135.766 300.531C135.734 300.688 135.708 300.844 135.688 301C135.677 301.146 135.672 301.266 135.672 301.359C135.672 301.776 135.797 302.073 136.047 302.25C136.297 302.427 136.63 302.516 137.047 302.516C137.474 302.516 137.88 302.469 138.266 302.375C138.661 302.271 139.099 302.135 139.578 301.969V305.484C139.078 305.724 138.474 305.922 137.766 306.078C137.068 306.234 136.286 306.312 135.422 306.312ZM148.484 306.312C147.641 306.312 146.844 306.104 146.094 305.688C145.344 305.271 144.729 304.599 144.25 303.672C143.781 302.745 143.547 301.516 143.547 299.984C143.547 298.839 143.667 297.703 143.906 296.578C144.156 295.453 144.51 294.391 144.969 293.391C145.438 292.38 146 291.49 146.656 290.719C147.323 289.938 148.073 289.323 148.906 288.875C149.75 288.427 150.661 288.203 151.641 288.203C152.38 288.203 153.026 288.312 153.578 288.531C154.13 288.74 154.604 289.036 155 289.422C155.396 289.807 155.719 290.255 155.969 290.766H156.094L156.984 288.531H160.609L156.891 306H153.375L153.594 303.734H153.469C153.052 304.245 152.599 304.693 152.109 305.078C151.62 305.464 151.078 305.766 150.484 305.984C149.891 306.203 149.224 306.312 148.484 306.312ZM150.328 302.516C150.974 302.516 151.573 302.266 152.125 301.766C152.677 301.255 153.151 300.594 153.547 299.781C153.943 298.969 154.224 298.109 154.391 297.203C154.474 296.786 154.531 296.37 154.562 295.953C154.604 295.526 154.625 295.068 154.625 294.578C154.625 293.839 154.427 293.229 154.031 292.75C153.646 292.26 153.115 292.016 152.438 292.016C151.979 292.016 151.542 292.167 151.125 292.469C150.719 292.76 150.344 293.167 150 293.688C149.656 294.198 149.354 294.786 149.094 295.453C148.844 296.109 148.651 296.807 148.516 297.547C148.38 298.286 148.312 299.026 148.312 299.766C148.312 300.672 148.49 301.359 148.844 301.828C149.198 302.286 149.693 302.516 150.328 302.516ZM161.75 306L166.906 281.688H171.609L166.453 306H161.75ZM171.25 306L174.953 288.531H179.656L175.953 306H171.25ZM178.062 286.359C177.396 286.359 176.833 286.214 176.375 285.922C175.927 285.63 175.703 285.135 175.703 284.438C175.703 283.833 175.812 283.328 176.031 282.922C176.26 282.516 176.589 282.208 177.016 282C177.443 281.792 177.953 281.688 178.547 281.688C179.172 281.688 179.714 281.823 180.172 282.094C180.641 282.365 180.875 282.854 180.875 283.562C180.875 284.396 180.646 285.073 180.188 285.594C179.729 286.104 179.021 286.359 178.062 286.359ZM188.078 306.312C186.87 306.312 185.771 306.099 184.781 305.672C183.802 305.234 183.021 304.547 182.438 303.609C181.865 302.661 181.578 301.422 181.578 299.891C181.578 298.63 181.708 297.422 181.969 296.266C182.229 295.109 182.615 294.042 183.125 293.062C183.635 292.083 184.266 291.234 185.016 290.516C185.766 289.786 186.625 289.219 187.594 288.812C188.562 288.406 189.641 288.203 190.828 288.203C191.87 288.203 192.802 288.302 193.625 288.5C194.458 288.698 195.234 288.974 195.953 289.328L194.516 292.906C193.953 292.667 193.401 292.458 192.859 292.281C192.318 292.104 191.703 292.016 191.016 292.016C190.276 292.016 189.615 292.229 189.031 292.656C188.458 293.083 187.969 293.656 187.562 294.375C187.167 295.094 186.865 295.901 186.656 296.797C186.448 297.682 186.344 298.583 186.344 299.5C186.344 300.156 186.448 300.708 186.656 301.156C186.875 301.604 187.182 301.943 187.578 302.172C187.984 302.401 188.469 302.516 189.031 302.516C189.823 302.516 190.557 302.396 191.234 302.156C191.911 301.906 192.609 301.599 193.328 301.234V305.078C192.599 305.464 191.812 305.766 190.969 305.984C190.125 306.203 189.161 306.312 188.078 306.312Z" fill="white"/>
<path d="M236.875 306L241.703 283.156H255.266L254.25 288.109H246.797L246.062 291.703H253L251.875 296.656H244.938L244.047 300.969H251.5L250.438 306H236.875ZM252.5 306L259.891 296.969L256.656 288.297H263.25L264.438 293.203L267.344 288.297H274.516L267.25 297.297L270.812 306H264.125L262.875 300.875L259.578 306H252.5ZM278.891 306.312C277.349 306.312 276.177 305.984 275.375 305.328C274.583 304.661 274.188 303.573 274.188 302.062C274.188 301.635 274.224 301.146 274.297 300.594C274.38 300.042 274.469 299.552 274.562 299.125L275.875 292.844H273.469L274.109 289.875L277.516 288.5L279.656 284.75H283.688L282.922 288.297H287.422L286.438 292.844H281.922L280.609 298.828C280.547 299.13 280.49 299.438 280.438 299.75C280.385 300.052 280.359 300.292 280.359 300.469C280.359 300.823 280.448 301.078 280.625 301.234C280.812 301.38 281.052 301.453 281.344 301.453C281.74 301.453 282.188 301.385 282.688 301.25C283.188 301.104 283.693 300.927 284.203 300.719V305.266C283.547 305.589 282.781 305.844 281.906 306.031C281.042 306.219 280.036 306.312 278.891 306.312ZM287.469 306L291.203 288.297H296.031L295.75 291.25H295.875C296.365 290.417 296.865 289.766 297.375 289.297C297.885 288.818 298.448 288.479 299.062 288.281C299.688 288.083 300.396 287.984 301.188 287.984C301.417 287.984 301.656 288 301.906 288.031C302.167 288.052 302.344 288.078 302.438 288.109L301.125 294.094C300.896 294 300.615 293.922 300.281 293.859C299.948 293.786 299.589 293.75 299.203 293.75C298.734 293.75 298.292 293.828 297.875 293.984C297.469 294.13 297.094 294.375 296.75 294.719C296.417 295.052 296.115 295.51 295.844 296.094C295.583 296.667 295.359 297.375 295.172 298.219L293.516 306H287.469ZM307.453 306.312C306.547 306.312 305.708 306.099 304.938 305.672C304.177 305.245 303.568 304.542 303.109 303.562C302.651 302.573 302.422 301.24 302.422 299.562C302.422 298.698 302.521 297.75 302.719 296.719C302.927 295.688 303.234 294.661 303.641 293.641C304.057 292.609 304.578 291.667 305.203 290.812C305.828 289.958 306.562 289.276 307.406 288.766C308.26 288.245 309.224 287.984 310.297 287.984C310.974 287.984 311.562 288.089 312.062 288.297C312.573 288.505 313.016 288.797 313.391 289.172C313.776 289.536 314.109 289.974 314.391 290.484H314.516L315.344 288.297H320.188L316.438 306H311.609L311.766 304.078H311.641C311.328 304.516 310.979 304.901 310.594 305.234C310.208 305.568 309.76 305.828 309.25 306.016C308.75 306.214 308.151 306.312 307.453 306.312ZM309.938 301.453C310.396 301.453 310.818 301.245 311.203 300.828C311.589 300.401 311.917 299.854 312.188 299.188C312.469 298.521 312.672 297.807 312.797 297.047C312.859 296.724 312.906 296.401 312.938 296.078C312.969 295.745 312.984 295.417 312.984 295.094C312.984 294.417 312.875 293.875 312.656 293.469C312.448 293.052 312.13 292.844 311.703 292.844C311.37 292.844 311.047 292.969 310.734 293.219C310.432 293.458 310.151 293.792 309.891 294.219C309.63 294.635 309.401 295.12 309.203 295.672C309.016 296.214 308.865 296.786 308.75 297.391C308.646 297.995 308.594 298.604 308.594 299.219C308.594 299.938 308.703 300.49 308.922 300.875C309.151 301.26 309.49 301.453 309.938 301.453ZM321.062 306L325.891 283.156H333.5C335.135 283.156 336.458 283.37 337.469 283.797C338.479 284.224 339.219 284.812 339.688 285.562C340.156 286.312 340.391 287.172 340.391 288.141C340.391 289.172 340.208 290.078 339.844 290.859C339.49 291.63 338.964 292.276 338.266 292.797C337.578 293.318 336.74 293.729 335.75 294.031V294.156C336.667 294.458 337.396 294.99 337.938 295.75C338.479 296.51 338.75 297.432 338.75 298.516C338.75 300.297 338.339 301.74 337.516 302.844C336.703 303.938 335.604 304.74 334.219 305.25C332.844 305.75 331.307 306 329.609 306H321.062ZM328.188 301.234H329.469C330.094 301.234 330.641 301.115 331.109 300.875C331.578 300.635 331.943 300.318 332.203 299.922C332.474 299.516 332.609 299.068 332.609 298.578C332.609 297.859 332.438 297.323 332.094 296.969C331.75 296.615 331.146 296.438 330.281 296.438H329.219L328.188 301.234ZM330.141 291.922H331.266C331.984 291.922 332.542 291.818 332.938 291.609C333.344 291.391 333.63 291.094 333.797 290.719C333.964 290.344 334.047 289.911 334.047 289.422C334.047 288.911 333.885 288.521 333.562 288.25C333.24 287.969 332.74 287.828 332.062 287.828H331.078L330.141 291.922ZM348.953 306.312C347.505 306.312 346.271 306.047 345.25 305.516C344.24 304.984 343.469 304.214 342.938 303.203C342.406 302.182 342.141 300.948 342.141 299.5C342.141 298.292 342.276 297.125 342.547 296C342.818 294.865 343.224 293.812 343.766 292.844C344.307 291.875 344.979 291.026 345.781 290.297C346.583 289.568 347.51 289 348.562 288.594C349.625 288.188 350.812 287.984 352.125 287.984C353.573 287.984 354.802 288.25 355.812 288.781C356.833 289.312 357.609 290.089 358.141 291.109C358.672 292.12 358.938 293.349 358.938 294.797C358.938 296.005 358.802 297.177 358.531 298.312C358.26 299.438 357.854 300.484 357.312 301.453C356.771 302.422 356.099 303.271 355.297 304C354.495 304.729 353.562 305.297 352.5 305.703C351.448 306.109 350.266 306.312 348.953 306.312ZM349.625 301.781C349.979 301.781 350.312 301.646 350.625 301.375C350.948 301.104 351.24 300.734 351.5 300.266C351.76 299.786 351.984 299.245 352.172 298.641C352.359 298.026 352.505 297.375 352.609 296.688C352.714 296 352.766 295.307 352.766 294.609C352.766 294.151 352.708 293.771 352.594 293.469C352.49 293.156 352.339 292.922 352.141 292.766C351.943 292.609 351.703 292.531 351.422 292.531C351.068 292.531 350.729 292.667 350.406 292.938C350.094 293.208 349.807 293.578 349.547 294.047C349.297 294.516 349.078 295.057 348.891 295.672C348.703 296.276 348.557 296.927 348.453 297.625C348.359 298.312 348.312 299.005 348.312 299.703C348.312 300.391 348.427 300.911 348.656 301.266C348.885 301.609 349.208 301.781 349.625 301.781ZM360.625 306L365.766 281.688H371.812L366.672 306H360.625ZM377.016 306.312C376.109 306.312 375.271 306.099 374.5 305.672C373.74 305.245 373.13 304.542 372.672 303.562C372.214 302.573 371.984 301.24 371.984 299.562C371.984 298.698 372.083 297.75 372.281 296.719C372.479 295.688 372.781 294.661 373.188 293.641C373.604 292.609 374.125 291.667 374.75 290.812C375.375 289.958 376.109 289.276 376.953 288.766C377.797 288.245 378.755 287.984 379.828 287.984C380.474 287.984 381.01 288.083 381.438 288.281C381.865 288.469 382.24 288.74 382.562 289.094C382.896 289.448 383.219 289.87 383.531 290.359H383.656C383.656 290.224 383.667 289.938 383.688 289.5C383.719 289.052 383.766 288.547 383.828 287.984C383.891 287.411 383.974 286.88 384.078 286.391L385.047 281.688H391.156L386 306H381.172L381.328 304.078H381.203C380.911 304.484 380.583 304.859 380.219 305.203C379.854 305.536 379.417 305.802 378.906 306C378.396 306.208 377.766 306.312 377.016 306.312ZM379.5 301.453C379.812 301.453 380.104 301.359 380.375 301.172C380.646 300.974 380.891 300.714 381.109 300.391C381.339 300.057 381.542 299.677 381.719 299.25C381.896 298.823 382.047 298.37 382.172 297.891C382.297 297.411 382.391 296.932 382.453 296.453C382.516 295.974 382.547 295.521 382.547 295.094C382.547 294.417 382.443 293.875 382.234 293.469C382.036 293.052 381.724 292.844 381.297 292.844C380.964 292.844 380.641 292.969 380.328 293.219C380.016 293.458 379.729 293.792 379.469 294.219C379.208 294.635 378.979 295.12 378.781 295.672C378.583 296.214 378.427 296.786 378.312 297.391C378.208 297.995 378.156 298.604 378.156 299.219C378.156 299.938 378.266 300.49 378.484 300.875C378.714 301.26 379.052 301.453 379.5 301.453ZM398.844 306L403.672 283.156H409.781L404.953 306H398.844ZM416.047 306.312C414.505 306.312 413.333 305.984 412.531 305.328C411.74 304.661 411.344 303.573 411.344 302.062C411.344 301.635 411.38 301.146 411.453 300.594C411.536 300.042 411.625 299.552 411.719 299.125L413.031 292.844H410.625L411.266 289.875L414.672 288.5L416.812 284.75H420.844L420.078 288.297H424.578L423.594 292.844H419.078L417.766 298.828C417.703 299.13 417.646 299.438 417.594 299.75C417.542 300.052 417.516 300.292 417.516 300.469C417.516 300.823 417.604 301.078 417.781 301.234C417.969 301.38 418.208 301.453 418.5 301.453C418.896 301.453 419.344 301.385 419.844 301.25C420.344 301.104 420.849 300.927 421.359 300.719V305.266C420.703 305.589 419.938 305.844 419.062 306.031C418.198 306.219 417.193 306.312 416.047 306.312ZM430.609 306.312C429.703 306.312 428.865 306.099 428.094 305.672C427.333 305.245 426.724 304.542 426.266 303.562C425.807 302.573 425.578 301.24 425.578 299.562C425.578 298.698 425.677 297.75 425.875 296.719C426.083 295.688 426.391 294.661 426.797 293.641C427.214 292.609 427.734 291.667 428.359 290.812C428.984 289.958 429.719 289.276 430.562 288.766C431.417 288.245 432.38 287.984 433.453 287.984C434.13 287.984 434.719 288.089 435.219 288.297C435.729 288.505 436.172 288.797 436.547 289.172C436.932 289.536 437.266 289.974 437.547 290.484H437.672L438.5 288.297H443.344L439.594 306H434.766L434.922 304.078H434.797C434.484 304.516 434.135 304.901 433.75 305.234C433.365 305.568 432.917 305.828 432.406 306.016C431.906 306.214 431.307 306.312 430.609 306.312ZM433.094 301.453C433.552 301.453 433.974 301.245 434.359 300.828C434.745 300.401 435.073 299.854 435.344 299.188C435.625 298.521 435.828 297.807 435.953 297.047C436.016 296.724 436.062 296.401 436.094 296.078C436.125 295.745 436.141 295.417 436.141 295.094C436.141 294.417 436.031 293.875 435.812 293.469C435.604 293.052 435.286 292.844 434.859 292.844C434.526 292.844 434.203 292.969 433.891 293.219C433.589 293.458 433.307 293.792 433.047 294.219C432.786 294.635 432.557 295.12 432.359 295.672C432.172 296.214 432.021 296.786 431.906 297.391C431.802 297.995 431.75 298.604 431.75 299.219C431.75 299.938 431.859 300.49 432.078 300.875C432.307 301.26 432.646 301.453 433.094 301.453ZM444.062 306L449.203 281.688H455.25L450.109 306H444.062ZM454.469 306L458.203 288.297H464.281L460.516 306H454.469ZM461.922 286.609C461.068 286.609 460.354 286.448 459.781 286.125C459.219 285.792 458.938 285.219 458.938 284.406C458.938 283.698 459.078 283.104 459.359 282.625C459.641 282.135 460.042 281.766 460.562 281.516C461.094 281.266 461.729 281.141 462.469 281.141C463.271 281.141 463.964 281.307 464.547 281.641C465.141 281.964 465.438 282.531 465.438 283.344C465.438 284.323 465.151 285.115 464.578 285.719C464.005 286.312 463.12 286.609 461.922 286.609ZM472.422 306.312C471.224 306.312 470.125 306.068 469.125 305.578C468.125 305.089 467.323 304.312 466.719 303.25C466.125 302.188 465.828 300.802 465.828 299.094C465.828 297.844 465.969 296.661 466.25 295.547C466.542 294.432 466.958 293.411 467.5 292.484C468.042 291.557 468.698 290.76 469.469 290.094C470.25 289.417 471.13 288.896 472.109 288.531C473.089 288.167 474.151 287.984 475.297 287.984C476.401 287.984 477.406 288.089 478.312 288.297C479.229 288.505 480.135 288.818 481.031 289.234L479.109 293.719C478.578 293.479 478 293.266 477.375 293.078C476.76 292.88 476.167 292.781 475.594 292.781C474.969 292.781 474.422 292.979 473.953 293.375C473.495 293.76 473.115 294.26 472.812 294.875C472.51 295.49 472.281 296.141 472.125 296.828C471.979 297.505 471.906 298.13 471.906 298.703C471.906 299.391 471.984 299.938 472.141 300.344C472.297 300.74 472.521 301.026 472.812 301.203C473.104 301.37 473.453 301.453 473.859 301.453C474.609 301.453 475.333 301.333 476.031 301.094C476.74 300.854 477.49 300.526 478.281 300.109V304.906C477.448 305.354 476.573 305.703 475.656 305.953C474.74 306.193 473.661 306.312 472.422 306.312Z" fill="white"/>
</svg>
