<svg width="575" height="381" viewBox="0 0 575 381" fill="none" xmlns="http://www.w3.org/2000/svg">
<g clip-path="url(#clip0_104_849)">
<rect width="1180" height="598" rx="30" fill="#F75B5B"/>
<circle cx="171.5" cy="162.5" r="46.5" fill="white"/>
<path d="M262.885 -155C300.54 -155 330.923 -140.356 354.034 -111.069C377.345 -81.7816 389 -38.8468 389 17.7356C389 55.59 383.521 87.4674 372.563 113.368C361.605 139.069 346.464 158.494 327.138 171.644C307.812 184.793 285.598 191.368 260.494 191.368C244.356 191.368 230.51 189.375 218.954 185.391C207.398 181.207 197.536 175.927 189.368 169.552C181.199 162.977 174.126 156.004 168.149 148.632H163.368C164.962 156.602 166.157 164.77 166.954 173.138C167.751 181.506 168.149 189.674 168.149 197.644V332.425H77V-148.724H151.115L163.966 -105.391H168.149C174.126 -114.356 181.398 -122.625 189.966 -130.195C198.533 -137.766 208.793 -143.743 220.747 -148.126C232.9 -152.709 246.946 -155 262.885 -155ZM233.598 -82.0805C217.659 -82.0805 205.008 -78.7931 195.644 -72.2184C186.28 -65.6437 179.406 -55.7816 175.023 -42.6322C170.839 -29.4828 168.548 -12.8468 168.149 7.27585V17.1379C168.149 38.6552 170.142 56.885 174.126 71.8276C178.31 86.7701 185.184 98.1264 194.747 105.897C204.51 113.667 217.858 117.552 234.793 117.552C248.739 117.552 260.195 113.667 269.161 105.897C278.126 98.1264 284.801 86.7701 289.184 71.8276C293.766 56.6858 296.057 38.2567 296.057 16.5402C296.057 -16.1341 290.977 -40.7395 280.816 -57.2759C270.655 -73.8123 254.916 -82.0805 233.598 -82.0805Z" fill="white"/>
<path fill-rule="evenodd" clip-rule="evenodd" d="M213.175 183.149C204.076 179.369 196.14 174.837 189.368 169.552C181.199 162.977 174.126 156.004 168.149 148.632H163.368C164.962 156.602 166.157 164.77 166.954 173.138C167.751 181.506 168.149 189.674 168.149 197.644V208.881C144.032 207.164 125 187.055 125 162.5C125 136.819 145.819 116 171.5 116C197.181 116 218 136.819 218 162.5C218 169.917 216.264 176.928 213.175 183.149Z" fill="#F75B5B"/>
</g>
<defs>
<clipPath id="clip0_104_849">
<rect width="575" height="381" rx="30" fill="white"/>
</clipPath>
</defs>
</svg>
