<svg width="274" height="547" viewBox="0 0 274 547" fill="none" xmlns="http://www.w3.org/2000/svg">
<mask id="path-1-inside-1_146_617" fill="white">
<path d="M1.85407e-05 136.729C1.69678e-05 118.773 3.54362 100.994 10.4285 84.405C17.3134 67.8163 27.4048 52.7435 40.1264 40.047C52.848 27.3506 67.9508 17.2793 84.5724 10.408C101.194 3.53675 119.009 0.000165326 137 0.000164541C154.991 0.000163756 172.806 3.53675 189.428 10.408C206.049 17.2793 221.152 27.3506 233.874 40.047C246.595 52.7435 256.687 67.8163 263.571 84.405C270.456 100.994 274 118.773 274 136.729L137 136.729L1.85407e-05 136.729Z"/>
</mask>
<path d="M1.85407e-05 136.729C1.69678e-05 118.773 3.54362 100.994 10.4285 84.405C17.3134 67.8163 27.4048 52.7435 40.1264 40.047C52.848 27.3506 67.9508 17.2793 84.5724 10.408C101.194 3.53675 119.009 0.000165326 137 0.000164541C154.991 0.000163756 172.806 3.53675 189.428 10.408C206.049 17.2793 221.152 27.3506 233.874 40.047C246.595 52.7435 256.687 67.8163 263.571 84.405C270.456 100.994 274 118.773 274 136.729L137 136.729L1.85407e-05 136.729Z" fill="#F75B5B" stroke="black" stroke-width="4" mask="url(#path-1-inside-1_146_617)"/>
<mask id="path-2-inside-2_146_617" fill="white">
<path d="M1.85407e-05 273.202C1.69678e-05 255.246 3.54362 237.467 10.4285 220.878C17.3134 204.289 27.4048 189.217 40.1264 176.52C52.848 163.824 67.9508 153.752 84.5724 146.881C101.194 140.01 119.009 136.473 137 136.473C154.991 136.473 172.806 140.01 189.428 146.881C206.049 153.752 221.152 163.824 233.874 176.52C246.595 189.217 256.687 204.289 263.571 220.878C270.456 237.467 274 255.246 274 273.202L137 273.202L1.85407e-05 273.202Z"/>
</mask>
<path d="M1.85407e-05 273.202C1.69678e-05 255.246 3.54362 237.467 10.4285 220.878C17.3134 204.289 27.4048 189.217 40.1264 176.52C52.848 163.824 67.9508 153.752 84.5724 146.881C101.194 140.01 119.009 136.473 137 136.473C154.991 136.473 172.806 140.01 189.428 146.881C206.049 153.752 221.152 163.824 233.874 176.52C246.595 189.217 256.687 204.289 263.571 220.878C270.456 237.467 274 255.246 274 273.202L137 273.202L1.85407e-05 273.202Z" fill="#F75B5B" stroke="black" stroke-width="4" mask="url(#path-2-inside-2_146_617)"/>
<mask id="path-3-inside-3_146_617" fill="white">
<path d="M1.85407e-05 410.101C1.69678e-05 392.145 3.54362 374.366 10.4285 357.777C17.3134 341.188 27.4048 326.116 40.1264 313.419C52.848 300.723 67.9508 290.651 84.5724 283.78C101.194 276.909 119.009 273.372 137 273.372C154.991 273.372 172.806 276.909 189.428 283.78C206.049 290.651 221.152 300.723 233.874 313.419C246.595 326.116 256.687 341.188 263.571 357.777C270.456 374.366 274 392.145 274 410.101L137 410.101L1.85407e-05 410.101Z"/>
</mask>
<path d="M1.85407e-05 410.101C1.69678e-05 392.145 3.54362 374.366 10.4285 357.777C17.3134 341.188 27.4048 326.116 40.1264 313.419C52.848 300.723 67.9508 290.651 84.5724 283.78C101.194 276.909 119.009 273.372 137 273.372C154.991 273.372 172.806 276.909 189.428 283.78C206.049 290.651 221.152 300.723 233.874 313.419C246.595 326.116 256.687 341.188 263.571 357.777C270.456 374.366 274 392.145 274 410.101L137 410.101L1.85407e-05 410.101Z" fill="#F75B5B" stroke="black" stroke-width="4" mask="url(#path-3-inside-3_146_617)"/>
<path d="M3.67655e-05 547C3.51926e-05 529.045 3.54363 511.265 10.4285 494.676C17.3134 478.088 27.4048 463.015 40.1264 450.318C52.848 437.622 67.9508 427.551 84.5724 420.679C101.194 413.808 119.009 410.271 137 410.271C154.991 410.271 172.806 413.808 189.428 420.679C206.049 427.551 221.152 437.622 233.874 450.318C246.595 463.015 256.687 478.088 263.571 494.676C270.456 511.265 274 529.045 274 547L137 547L3.67655e-05 547Z" fill="#F75B5B"/>
<path fill-rule="evenodd" clip-rule="evenodd" d="M12.2786 495.441C5.74987 511.172 2.27026 527.989 2.01738 545.001L271.983 545.001C271.73 527.989 268.25 511.172 261.721 495.441C254.937 479.095 244.993 464.242 232.458 451.731C219.922 439.221 205.04 429.296 188.661 422.526C172.283 415.755 154.728 412.27 137 412.27C119.272 412.27 101.717 415.755 85.3387 422.526C68.9601 429.297 54.0781 439.221 41.5424 451.731C29.0067 464.242 19.0629 479.095 12.2786 495.441ZM273.985 545.001C273.995 545.667 274 546.334 274 547L3.67655e-05 547C3.67071e-05 546.334 0.00492555 545.667 0.0146727 545.001C0.267703 527.726 3.79917 510.649 10.4285 494.676C17.3134 478.088 27.4048 463.015 40.1264 450.318C52.848 437.622 67.9508 427.551 84.5724 420.679C101.194 413.808 119.009 410.271 137 410.271C154.991 410.271 172.806 413.808 189.428 420.679C206.049 427.551 221.152 437.622 233.874 450.318C246.595 463.015 256.687 478.088 263.571 494.676C270.201 510.649 273.732 527.726 273.985 545.001Z" fill="black"/>
</svg>
