<svg width="296" height="297" viewBox="0 0 296 297" fill="none" xmlns="http://www.w3.org/2000/svg">
<path d="M153.698 57.9517L186.347 7.8306L188.258 67.6171L188.315 69.3869L189.801 68.4246L240.013 35.9162L217.442 91.3112L216.774 92.951L218.523 92.6765L277.617 83.4018L234.466 124.827L233.188 126.053L234.898 126.514L292.655 142.077L236.385 162.369L234.72 162.97L236.094 164.086L282.528 201.796L222.869 197.447L221.103 197.318L221.905 198.897L248.987 252.232L196.254 223.994L194.693 223.159L194.784 224.927L197.831 284.666L161.143 237.421L160.057 236.023L159.42 237.675L137.905 293.489L123.605 235.406L123.182 233.687L121.928 234.937L79.5719 277.175L90.1327 218.298L90.4454 216.555L88.7914 217.187L32.9174 238.545L66.5128 189.054L67.5073 187.589L65.7391 187.493L6.00851 184.279L56.8295 152.731L58.3339 151.797L56.7573 150.991L3.49803 123.76L62.7572 115.61L64.5114 115.368L63.399 113.991L25.8201 67.4515L83.271 84.1088L84.9717 84.6019L84.5158 82.8909L69.1149 25.0905L114.824 63.6751L116.177 64.8172L116.456 63.0688L125.896 4.00132L151.96 57.8416L152.731 59.4354L153.698 57.9517Z" fill="#8544E1" stroke="black" stroke-width="2"/>
</svg>
