<svg width="448" height="226" viewBox="0 0 448 226" fill="none" xmlns="http://www.w3.org/2000/svg">
<path d="M13.2969 87.2521C11.7746 97.221 15.8495 107.692 24.8046 118.144C33.7571 128.593 47.503 138.917 65.0577 148.525C100.16 167.737 150.292 183.98 207.13 192.66C263.968 201.34 316.663 200.799 355.899 192.94C375.521 189.009 391.722 183.258 403.385 175.957C415.052 168.654 422.066 159.876 423.588 149.908C425.111 139.939 421.036 129.468 412.081 119.015C403.128 108.566 389.382 98.2424 371.827 88.6344C336.726 69.4224 286.593 53.1795 229.755 44.4998C172.917 35.8201 120.222 36.3602 80.9862 44.2201C61.364 48.1508 45.1633 53.9015 33.5002 61.2024C21.8337 68.5055 14.8193 77.2832 13.2969 87.2521Z" fill="#0C1416" stroke="#0C1416" stroke-width="2"/>
<path d="M25.013 75.7902C23.4907 85.7591 27.5656 96.2302 36.5207 106.682C45.4732 117.132 59.2191 127.455 76.7738 137.063C111.876 156.275 162.008 172.518 218.846 181.198C275.684 189.878 328.379 189.338 367.615 181.478C387.237 177.547 403.438 171.796 415.101 164.495C426.768 157.192 433.782 148.415 435.304 138.446C436.827 128.477 432.752 118.006 423.797 107.553C414.844 97.1043 401.098 86.7805 383.544 77.1725C348.442 57.9605 298.309 41.7176 241.471 33.0379C184.633 24.3582 131.938 24.8983 92.7022 32.7581C73.08 36.6889 56.8794 42.4396 45.2163 49.7405C33.5497 57.0436 26.5353 65.8213 25.013 75.7902Z" fill="#FDC62E" stroke="#0C1416" stroke-width="2"/>
</svg>
