<svg width="445" height="226" viewBox="0 0 445 226" fill="none" xmlns="http://www.w3.org/2000/svg">
<path d="M423.304 87.2521C424.827 97.221 420.752 107.692 411.797 118.144C402.844 128.593 389.098 138.917 371.544 148.525C336.442 167.737 286.309 183.98 229.471 192.66C172.633 201.34 119.938 200.799 80.7023 192.94C61.0801 189.009 44.8794 183.258 33.2163 175.957C21.5498 168.654 14.5354 159.876 13.013 149.908C11.4907 139.939 15.5656 129.468 24.5208 119.015C33.4732 108.566 47.2192 98.2424 64.7739 88.6344C99.8756 69.4224 150.008 53.1795 206.846 44.4998C263.684 35.8201 316.379 36.3602 355.615 44.2201C375.237 48.1508 391.438 53.9015 403.101 61.2024C414.768 68.5055 421.782 77.2832 423.304 87.2521Z" fill="#0C1416" stroke="#0C1416" stroke-width="2"/>
<path d="M431.588 75.7902C433.111 85.7591 429.036 96.2302 420.081 106.682C411.128 117.132 397.382 127.455 379.828 137.063C344.726 156.275 294.593 172.518 237.755 181.198C180.917 189.878 128.222 189.338 88.9862 181.478C69.364 177.547 53.1633 171.796 41.5003 164.495C29.8337 157.192 22.8193 148.415 21.297 138.446C19.7746 128.477 23.8495 118.006 32.8047 107.553C41.7571 97.1043 55.5031 86.7805 73.0578 77.1725C108.16 57.9605 158.292 41.7176 215.13 33.0379C271.968 24.3582 324.663 24.8983 363.899 32.7581C383.521 36.6889 399.722 42.4396 411.385 49.7405C423.052 57.0436 430.066 65.8213 431.588 75.7902Z" fill="#FDC62E" stroke="#0C1416" stroke-width="2"/>
</svg>
