<svg width="439" height="381" viewBox="0 0 439 381" fill="none" xmlns="http://www.w3.org/2000/svg">
<ellipse cx="352.5" cy="132" rx="86.5" ry="87" fill="white"/>
<path d="M242.896 520.912C199.116 520.912 161.799 513 130.942 497.176C100.086 481.089 76.6137 456.298 60.5261 422.804C44.4386 389.31 36.3948 346.454 36.3948 294.236C36.3948 240.171 45.4935 196.128 63.6909 162.107C82.152 127.822 107.602 102.636 140.041 86.548C172.743 70.4604 210.589 62.4166 253.577 62.4166C284.169 62.4166 310.543 65.4495 332.696 71.5153C355.113 77.3174 374.629 84.3063 391.244 92.4819L355.64 185.842C336.652 178.194 318.982 171.997 302.631 167.249C286.279 162.239 269.928 159.733 253.577 159.733C232.478 159.733 214.94 164.744 200.963 174.766C186.985 184.524 176.567 199.293 169.711 219.072C162.854 238.852 159.425 263.643 159.425 293.444C159.425 322.719 163.117 346.982 170.502 366.234C177.886 385.486 188.567 399.86 202.545 409.354C216.523 418.585 233.533 423.2 253.577 423.2C278.631 423.2 300.916 419.903 320.432 413.31C339.948 406.453 358.937 396.959 377.398 384.827V488.077C358.937 499.682 339.553 507.989 319.246 513C299.202 518.275 273.752 520.912 242.896 520.912Z" fill="white"/>
<path fill-rule="evenodd" clip-rule="evenodd" d="M270.803 160.66C281.412 161.802 292.022 163.998 302.631 167.249C318.982 171.997 336.652 178.194 355.64 185.842L391.244 92.4819C374.629 84.3063 355.113 77.3174 332.696 71.5154C321.961 68.576 310.235 66.3487 297.518 64.8337C278.27 80.7905 266 104.954 266 132C266 142.042 267.691 151.686 270.803 160.66Z" fill="#1070FF"/>
</svg>
